<mxfile host="app.diagrams.net" agent="Mozilla/5.0 (Windows NT 10.0; Win64; x64) AppleWebKit/537.36 (KHTML, like Gecko) Chrome/132.0.0.0 Safari/537.36" version="26.0.10">
  <diagram id="uHDWTQrGH9c-VjMVEw55" name="Страница — 2">
    <mxGraphModel dx="749" dy="315" grid="0" gridSize="10" guides="1" tooltips="1" connect="1" arrows="1" fold="1" page="0" pageScale="1" pageWidth="827" pageHeight="1169" math="0" shadow="0">
      <root>
        <mxCell id="0" />
        <mxCell id="1" parent="0" />
        <mxCell id="fJ2e_rolW9SCwPJDsatI-142" value="" style="verticalLabelPosition=bottom;html=1;verticalAlign=top;align=center;shape=mxgraph.floorplan.wall;fillColor=strokeColor;rotation=90;" parent="1" vertex="1">
          <mxGeometry x="2434.6543283913347" y="814.8701546408913" width="732" height="10" as="geometry" />
        </mxCell>
        <mxCell id="fJ2e_rolW9SCwPJDsatI-143" value="" style="verticalLabelPosition=bottom;html=1;verticalAlign=top;align=center;shape=mxgraph.floorplan.wall;fillColor=strokeColor;rotation=90;direction=south;" parent="1" vertex="1">
          <mxGeometry x="2940.0243283913346" y="1031.5001546408912" width="10" height="298.75" as="geometry" />
        </mxCell>
        <mxCell id="fJ2e_rolW9SCwPJDsatI-144" value="" style="verticalLabelPosition=bottom;html=1;verticalAlign=top;align=center;shape=mxgraph.floorplan.wall;fillColor=strokeColor;rotation=90;direction=west;" parent="1" vertex="1">
          <mxGeometry x="3163.1543283913347" y="814.8701546408913" width="732" height="10" as="geometry" />
        </mxCell>
        <mxCell id="fJ2e_rolW9SCwPJDsatI-145" value="" style="verticalLabelPosition=bottom;html=1;verticalAlign=top;align=center;shape=mxgraph.floorplan.wall;fillColor=strokeColor;rotation=90;direction=north;" parent="1" vertex="1">
          <mxGeometry x="3156.6543283913347" y="92.87015464089131" width="10" height="732" as="geometry" />
        </mxCell>
        <mxCell id="fJ2e_rolW9SCwPJDsatI-146" value="" style="verticalLabelPosition=bottom;html=1;verticalAlign=top;align=center;shape=mxgraph.floorplan.wallU;fillColor=strokeColor;" parent="1" vertex="1">
          <mxGeometry x="3093.1543283913347" y="1088.8701546408913" width="118" height="97" as="geometry" />
        </mxCell>
        <mxCell id="fJ2e_rolW9SCwPJDsatI-147" value="" style="verticalLabelPosition=bottom;html=1;verticalAlign=top;align=center;shape=mxgraph.floorplan.wall;fillColor=strokeColor;direction=south;" parent="1" vertex="1">
          <mxGeometry x="2933.1543283913347" y="461.8701546408913" width="10" height="183" as="geometry" />
        </mxCell>
        <mxCell id="fJ2e_rolW9SCwPJDsatI-148" value="" style="group" parent="1" vertex="1" connectable="0">
          <mxGeometry x="2797.1543283913347" y="582.8701546408913" width="142" height="44" as="geometry" />
        </mxCell>
        <mxCell id="fJ2e_rolW9SCwPJDsatI-149" value="" style="verticalLabelPosition=bottom;html=1;verticalAlign=top;align=center;shape=mxgraph.floorplan.wall;fillColor=strokeColor;direction=west;" parent="fJ2e_rolW9SCwPJDsatI-148" vertex="1">
          <mxGeometry width="53" height="10" as="geometry" />
        </mxCell>
        <mxCell id="fJ2e_rolW9SCwPJDsatI-150" value="" style="verticalLabelPosition=bottom;html=1;verticalAlign=top;align=center;shape=mxgraph.floorplan.wall;fillColor=strokeColor;direction=west;" parent="fJ2e_rolW9SCwPJDsatI-148" vertex="1">
          <mxGeometry x="94" width="48" height="10" as="geometry" />
        </mxCell>
        <mxCell id="fJ2e_rolW9SCwPJDsatI-151" value="" style="verticalLabelPosition=bottom;html=1;verticalAlign=top;align=center;shape=mxgraph.floorplan.doorRight;aspect=fixed;" parent="fJ2e_rolW9SCwPJDsatI-148" vertex="1">
          <mxGeometry x="53" width="41.41" height="44" as="geometry" />
        </mxCell>
        <mxCell id="fJ2e_rolW9SCwPJDsatI-152" value="" style="group;direction=west;rotation=-180;" parent="1" vertex="1" connectable="0">
          <mxGeometry x="2797.1543283913347" y="1047.8701546408913" width="142" height="44" as="geometry" />
        </mxCell>
        <mxCell id="fJ2e_rolW9SCwPJDsatI-153" value="" style="verticalLabelPosition=bottom;html=1;verticalAlign=top;align=center;shape=mxgraph.floorplan.wall;fillColor=strokeColor;direction=west;rotation=-180;" parent="fJ2e_rolW9SCwPJDsatI-152" vertex="1">
          <mxGeometry x="89" y="34" width="53" height="10" as="geometry" />
        </mxCell>
        <mxCell id="fJ2e_rolW9SCwPJDsatI-154" value="" style="verticalLabelPosition=bottom;html=1;verticalAlign=top;align=center;shape=mxgraph.floorplan.wall;fillColor=strokeColor;direction=west;rotation=-180;" parent="fJ2e_rolW9SCwPJDsatI-152" vertex="1">
          <mxGeometry y="34" width="48" height="10" as="geometry" />
        </mxCell>
        <mxCell id="fJ2e_rolW9SCwPJDsatI-155" value="" style="verticalLabelPosition=bottom;html=1;verticalAlign=top;align=center;shape=mxgraph.floorplan.doorRight;aspect=fixed;rotation=-180;" parent="fJ2e_rolW9SCwPJDsatI-152" vertex="1">
          <mxGeometry x="48" width="41.41" height="44" as="geometry" />
        </mxCell>
        <mxCell id="fJ2e_rolW9SCwPJDsatI-156" value="" style="verticalLabelPosition=bottom;html=1;verticalAlign=top;align=center;shape=mxgraph.floorplan.doorRight;aspect=fixed;direction=south;" parent="fJ2e_rolW9SCwPJDsatI-152" vertex="1">
          <mxGeometry x="99.5" y="-19" width="42.5" height="40" as="geometry" />
        </mxCell>
        <mxCell id="fJ2e_rolW9SCwPJDsatI-157" value="&lt;b&gt;1 - ВХОД&lt;br&gt;2 - техническая комната&amp;nbsp;&lt;br&gt;3 - архив&lt;/b&gt;&lt;div&gt;&lt;b&gt;4 - лестница на 2 этаж&lt;/b&gt;&lt;/div&gt;&lt;div&gt;&lt;b&gt;5 - санузлы&lt;/b&gt;&lt;/div&gt;&lt;div&gt;&lt;b&gt;6 -&amp;nbsp;&lt;/b&gt;&lt;span style=&quot;font-family: &amp;quot;Times New Roman&amp;quot;, serif; font-size: 14pt; background-color: transparent; color: light-dark(rgb(0, 0, 0), rgb(255, 255, 255));&quot;&gt;основной зал паспортного стола&lt;br&gt;7- зона ожидания&lt;/span&gt;&lt;/div&gt;" style="text;html=1;align=center;verticalAlign=middle;whiteSpace=wrap;rounded=0;fontSize=25;" parent="1" vertex="1">
          <mxGeometry x="3548.1543283913347" y="679.8701546408913" width="620" height="336" as="geometry" />
        </mxCell>
        <mxCell id="fJ2e_rolW9SCwPJDsatI-158" value="" style="verticalLabelPosition=bottom;html=1;verticalAlign=top;align=center;shape=mxgraph.floorplan.wallU;fillColor=strokeColor;rotation=90;" parent="1" vertex="1">
          <mxGeometry x="3271.0043283913346" y="2019.8701546408913" width="146.25" height="187" as="geometry" />
        </mxCell>
        <mxCell id="fJ2e_rolW9SCwPJDsatI-159" value="" style="verticalLabelPosition=bottom;html=1;verticalAlign=top;align=center;shape=mxgraph.floorplan.wallU;fillColor=strokeColor;rotation=90;" parent="1" vertex="1">
          <mxGeometry x="2937.0843283913346" y="616.8701546408913" width="100.14" height="104.2" as="geometry" />
        </mxCell>
        <mxCell id="fJ2e_rolW9SCwPJDsatI-160" value="" style="verticalLabelPosition=bottom;html=1;verticalAlign=top;align=center;shape=mxgraph.floorplan.wallU;fillColor=strokeColor;rotation=90;" parent="1" vertex="1">
          <mxGeometry x="2939.1543283913347" y="814.8701546408913" width="100" height="100" as="geometry" />
        </mxCell>
        <mxCell id="fJ2e_rolW9SCwPJDsatI-161" value="" style="verticalLabelPosition=bottom;html=1;verticalAlign=top;align=center;shape=mxgraph.floorplan.wallU;fillColor=strokeColor;rotation=90;" parent="1" vertex="1">
          <mxGeometry x="2939.1543283913347" y="915.8701546408913" width="100" height="100" as="geometry" />
        </mxCell>
        <mxCell id="fJ2e_rolW9SCwPJDsatI-162" value="" style="verticalLabelPosition=bottom;html=1;verticalAlign=top;align=center;shape=mxgraph.floorplan.wall;fillColor=strokeColor;direction=south;" parent="1" vertex="1">
          <mxGeometry x="2929.1543283913347" y="1069.8701546408913" width="10" height="116" as="geometry" />
        </mxCell>
        <mxCell id="fJ2e_rolW9SCwPJDsatI-163" value="" style="verticalLabelPosition=bottom;html=1;verticalAlign=top;align=center;shape=mxgraph.floorplan.doorRight;aspect=fixed;direction=south;" parent="1" vertex="1">
          <mxGeometry x="2898.1543283913347" y="948.8701546408913" width="42.5" height="40" as="geometry" />
        </mxCell>
        <mxCell id="fJ2e_rolW9SCwPJDsatI-164" value="" style="verticalLabelPosition=bottom;html=1;verticalAlign=top;align=center;shape=mxgraph.floorplan.doorRight;aspect=fixed;direction=south;" parent="1" vertex="1">
          <mxGeometry x="2900.6543283913347" y="838.8701546408913" width="42.5" height="40" as="geometry" />
        </mxCell>
        <mxCell id="fJ2e_rolW9SCwPJDsatI-165" value="" style="verticalLabelPosition=bottom;html=1;verticalAlign=top;align=center;shape=mxgraph.floorplan.doorRight;aspect=fixed;direction=south;" parent="1" vertex="1">
          <mxGeometry x="2900.6543283913347" y="646.0701546408914" width="42.5" height="40" as="geometry" />
        </mxCell>
        <mxCell id="fJ2e_rolW9SCwPJDsatI-166" value="" style="verticalLabelPosition=bottom;html=1;verticalAlign=top;align=center;shape=mxgraph.floorplan.wall;fillColor=strokeColor;direction=south;" parent="1" vertex="1">
          <mxGeometry x="2933.1543283913347" y="686.0701546408914" width="10" height="62.8" as="geometry" />
        </mxCell>
        <mxCell id="fJ2e_rolW9SCwPJDsatI-167" value="" style="verticalLabelPosition=bottom;html=1;verticalAlign=top;align=center;shape=mxgraph.floorplan.wall;fillColor=strokeColor;direction=south;" parent="1" vertex="1">
          <mxGeometry x="2933.1543283913347" y="788.8701546408913" width="10" height="50" as="geometry" />
        </mxCell>
        <mxCell id="fJ2e_rolW9SCwPJDsatI-168" value="" style="verticalLabelPosition=bottom;html=1;verticalAlign=top;align=center;shape=mxgraph.floorplan.wall;fillColor=strokeColor;direction=south;" parent="1" vertex="1">
          <mxGeometry x="2930.6543283913347" y="879.8701546408913" width="10" height="69" as="geometry" />
        </mxCell>
        <mxCell id="fJ2e_rolW9SCwPJDsatI-169" value="" style="group" parent="1" vertex="1" connectable="0">
          <mxGeometry x="3394.1543283913347" y="425.8701546408913" width="138.5" height="145" as="geometry" />
        </mxCell>
        <mxCell id="fJ2e_rolW9SCwPJDsatI-170" value="" style="verticalLabelPosition=bottom;html=1;verticalAlign=top;align=center;shape=mxgraph.floorplan.wall;fillColor=strokeColor;direction=south;" parent="fJ2e_rolW9SCwPJDsatI-169" vertex="1">
          <mxGeometry x="34.5" y="118" width="10" height="27" as="geometry" />
        </mxCell>
        <mxCell id="fJ2e_rolW9SCwPJDsatI-171" value="" style="group" parent="fJ2e_rolW9SCwPJDsatI-169" vertex="1" connectable="0">
          <mxGeometry width="138.5" height="145" as="geometry" />
        </mxCell>
        <mxCell id="fJ2e_rolW9SCwPJDsatI-172" value="" style="verticalLabelPosition=bottom;html=1;verticalAlign=top;align=center;shape=mxgraph.floorplan.wall;fillColor=strokeColor;direction=west;" parent="fJ2e_rolW9SCwPJDsatI-171" vertex="1">
          <mxGeometry x="34.5" y="135" width="104" height="10" as="geometry" />
        </mxCell>
        <mxCell id="fJ2e_rolW9SCwPJDsatI-173" value="" style="verticalLabelPosition=bottom;html=1;verticalAlign=top;align=center;shape=mxgraph.floorplan.wall;fillColor=strokeColor;direction=west;" parent="fJ2e_rolW9SCwPJDsatI-171" vertex="1">
          <mxGeometry x="32.5" width="106" height="81" as="geometry" />
        </mxCell>
        <mxCell id="fJ2e_rolW9SCwPJDsatI-174" value="&lt;b&gt;5&lt;/b&gt;" style="text;html=1;align=center;verticalAlign=middle;whiteSpace=wrap;rounded=0;fontSize=25;" parent="fJ2e_rolW9SCwPJDsatI-171" vertex="1">
          <mxGeometry x="59.5" y="75.38" width="60" height="30" as="geometry" />
        </mxCell>
        <mxCell id="fJ2e_rolW9SCwPJDsatI-175" value="" style="verticalLabelPosition=bottom;html=1;verticalAlign=top;align=center;shape=mxgraph.floorplan.doorRight;aspect=fixed;direction=south;" parent="fJ2e_rolW9SCwPJDsatI-171" vertex="1">
          <mxGeometry y="77.38" width="42.5" height="40" as="geometry" />
        </mxCell>
        <mxCell id="fJ2e_rolW9SCwPJDsatI-176" value="" style="verticalLabelPosition=bottom;html=1;verticalAlign=top;align=center;shape=mxgraph.floorplan.wall;fillColor=strokeColor;direction=south;" parent="fJ2e_rolW9SCwPJDsatI-171" vertex="1">
          <mxGeometry x="32.5" y="45" width="10" height="32" as="geometry" />
        </mxCell>
        <mxCell id="fJ2e_rolW9SCwPJDsatI-177" value="" style="verticalLabelPosition=bottom;html=1;verticalAlign=top;align=center;shape=mxgraph.floorplan.wall;fillColor=strokeColor;direction=west;" parent="fJ2e_rolW9SCwPJDsatI-171" vertex="1">
          <mxGeometry x="-52" y="135" width="89" height="10" as="geometry" />
        </mxCell>
        <mxCell id="fJ2e_rolW9SCwPJDsatI-178" value="" style="group;rotation=-180;" parent="1" vertex="1" connectable="0">
          <mxGeometry x="3340.1543283913347" y="724.7001546408912" width="132.67000000000002" height="100.17000000000002" as="geometry" />
        </mxCell>
        <mxCell id="fJ2e_rolW9SCwPJDsatI-179" value="" style="verticalLabelPosition=bottom;html=1;verticalAlign=top;align=center;shape=mxgraph.floorplan.wallU;fillColor=strokeColor;rotation=-90;direction=east;" parent="fJ2e_rolW9SCwPJDsatI-178" vertex="1">
          <mxGeometry width="100.14" height="100.2" as="geometry" />
        </mxCell>
        <mxCell id="fJ2e_rolW9SCwPJDsatI-180" value="" style="verticalLabelPosition=bottom;html=1;verticalAlign=top;align=center;shape=mxgraph.floorplan.wall;fillColor=strokeColor;direction=south;rotation=-180;" parent="fJ2e_rolW9SCwPJDsatI-178" vertex="1">
          <mxGeometry x="90" y="1" width="10" height="29" as="geometry" />
        </mxCell>
        <mxCell id="fJ2e_rolW9SCwPJDsatI-181" value="" style="verticalLabelPosition=bottom;html=1;verticalAlign=top;align=center;shape=mxgraph.floorplan.doorRight;aspect=fixed;direction=south;rotation=-180;" parent="fJ2e_rolW9SCwPJDsatI-178" vertex="1">
          <mxGeometry x="90" y="30" width="42.5" height="40" as="geometry" />
        </mxCell>
        <mxCell id="fJ2e_rolW9SCwPJDsatI-182" value="" style="verticalLabelPosition=bottom;html=1;verticalAlign=top;align=center;shape=mxgraph.floorplan.wall;fillColor=strokeColor;direction=south;rotation=-180;" parent="fJ2e_rolW9SCwPJDsatI-178" vertex="1">
          <mxGeometry x="90" y="71" width="10" height="29" as="geometry" />
        </mxCell>
        <mxCell id="fJ2e_rolW9SCwPJDsatI-183" value="" style="fontColor=#0066CC;verticalAlign=top;verticalLabelPosition=bottom;labelPosition=center;align=center;html=1;outlineConnect=0;fillColor=#CCCCCC;strokeColor=#6881B3;gradientColor=none;gradientDirection=north;strokeWidth=2;shape=mxgraph.networks.pc;" parent="fJ2e_rolW9SCwPJDsatI-178" vertex="1">
          <mxGeometry x="29" y="23.090000000000032" width="23.43" height="23.5" as="geometry" />
        </mxCell>
        <mxCell id="fJ2e_rolW9SCwPJDsatI-184" value="" style="fontColor=#0066CC;verticalAlign=top;verticalLabelPosition=bottom;labelPosition=center;align=center;html=1;outlineConnect=0;fillColor=#CCCCCC;strokeColor=#6881B3;gradientColor=none;gradientDirection=north;strokeWidth=2;shape=mxgraph.networks.phone_2;" parent="fJ2e_rolW9SCwPJDsatI-178" vertex="1">
          <mxGeometry x="60" y="25.75999999999999" width="20.66" height="18.16" as="geometry" />
        </mxCell>
        <mxCell id="fJ2e_rolW9SCwPJDsatI-185" value="" style="fontColor=#0066CC;verticalAlign=top;verticalLabelPosition=bottom;labelPosition=center;align=center;html=1;outlineConnect=0;fillColor=#CCCCCC;strokeColor=#6881B3;gradientColor=none;gradientDirection=north;strokeWidth=2;shape=mxgraph.networks.printer;" parent="fJ2e_rolW9SCwPJDsatI-178" vertex="1">
          <mxGeometry x="33.43000000000001" y="56.09000000000003" width="21.57" height="14.91" as="geometry" />
        </mxCell>
        <mxCell id="fJ2e_rolW9SCwPJDsatI-186" value="" style="endArrow=none;html=1;rounded=0;fontSize=12;startSize=8;endSize=8;curved=0;strokeColor=#99004D;strokeWidth=2;" parent="fJ2e_rolW9SCwPJDsatI-178" target="fJ2e_rolW9SCwPJDsatI-184" edge="1">
          <mxGeometry width="50" height="50" relative="1" as="geometry">
            <mxPoint x="70" y="11" as="sourcePoint" />
            <mxPoint x="70" y="25" as="targetPoint" />
          </mxGeometry>
        </mxCell>
        <mxCell id="fJ2e_rolW9SCwPJDsatI-187" value="" style="endArrow=none;html=1;rounded=0;fontSize=12;startSize=8;endSize=8;curved=0;strokeColor=#99004D;strokeWidth=2;exitX=0.9;exitY=0.607;exitDx=0;exitDy=0;exitPerimeter=0;" parent="fJ2e_rolW9SCwPJDsatI-178" edge="1">
          <mxGeometry width="50" height="50" relative="1" as="geometry">
            <mxPoint x="70.79140000000007" y="11.043999999999755" as="sourcePoint" />
            <mxPoint x="20" y="11.090000000000032" as="targetPoint" />
          </mxGeometry>
        </mxCell>
        <mxCell id="fJ2e_rolW9SCwPJDsatI-188" value="" style="endArrow=none;html=1;rounded=0;fontSize=12;startSize=8;endSize=8;curved=0;strokeColor=#99004D;strokeWidth=2;" parent="fJ2e_rolW9SCwPJDsatI-178" edge="1">
          <mxGeometry width="50" height="50" relative="1" as="geometry">
            <mxPoint x="21" y="11.759999999999991" as="sourcePoint" />
            <mxPoint x="21" y="34.170000000000016" as="targetPoint" />
          </mxGeometry>
        </mxCell>
        <mxCell id="fJ2e_rolW9SCwPJDsatI-189" value="" style="endArrow=none;html=1;rounded=0;fontSize=12;startSize=8;endSize=8;curved=0;strokeColor=#99004D;strokeWidth=2;entryX=0.5;entryY=0;entryDx=0;entryDy=0;entryPerimeter=0;" parent="fJ2e_rolW9SCwPJDsatI-178" target="fJ2e_rolW9SCwPJDsatI-185" edge="1">
          <mxGeometry width="50" height="50" relative="1" as="geometry">
            <mxPoint x="44.05000000000001" y="46.59000000000003" as="sourcePoint" />
            <mxPoint x="44.05000000000001" y="60.59000000000003" as="targetPoint" />
          </mxGeometry>
        </mxCell>
        <mxCell id="fJ2e_rolW9SCwPJDsatI-190" value="" style="endArrow=none;html=1;rounded=0;fontSize=12;startSize=8;endSize=8;curved=0;strokeColor=#99004D;strokeWidth=2;" parent="fJ2e_rolW9SCwPJDsatI-178" target="fJ2e_rolW9SCwPJDsatI-183" edge="1">
          <mxGeometry width="50" height="50" relative="1" as="geometry">
            <mxPoint x="12" y="35.170000000000016" as="sourcePoint" />
            <mxPoint x="27" y="33.170000000000016" as="targetPoint" />
          </mxGeometry>
        </mxCell>
        <mxCell id="fJ2e_rolW9SCwPJDsatI-191" value="" style="group;rotation=-180;" parent="1" vertex="1" connectable="0">
          <mxGeometry x="3340.1543283913347" y="623.7801546408913" width="132.67000000000002" height="100.17000000000002" as="geometry" />
        </mxCell>
        <mxCell id="fJ2e_rolW9SCwPJDsatI-192" value="" style="verticalLabelPosition=bottom;html=1;verticalAlign=top;align=center;shape=mxgraph.floorplan.wallU;fillColor=strokeColor;rotation=-90;direction=east;" parent="fJ2e_rolW9SCwPJDsatI-191" vertex="1">
          <mxGeometry width="100.14" height="100.2" as="geometry" />
        </mxCell>
        <mxCell id="fJ2e_rolW9SCwPJDsatI-193" value="" style="verticalLabelPosition=bottom;html=1;verticalAlign=top;align=center;shape=mxgraph.floorplan.wall;fillColor=strokeColor;direction=south;rotation=-180;" parent="fJ2e_rolW9SCwPJDsatI-191" vertex="1">
          <mxGeometry x="90" y="1" width="10" height="29" as="geometry" />
        </mxCell>
        <mxCell id="fJ2e_rolW9SCwPJDsatI-194" value="" style="verticalLabelPosition=bottom;html=1;verticalAlign=top;align=center;shape=mxgraph.floorplan.doorRight;aspect=fixed;direction=south;rotation=-180;" parent="fJ2e_rolW9SCwPJDsatI-191" vertex="1">
          <mxGeometry x="90" y="30" width="42.5" height="40" as="geometry" />
        </mxCell>
        <mxCell id="fJ2e_rolW9SCwPJDsatI-195" value="" style="verticalLabelPosition=bottom;html=1;verticalAlign=top;align=center;shape=mxgraph.floorplan.wall;fillColor=strokeColor;direction=south;rotation=-180;" parent="fJ2e_rolW9SCwPJDsatI-191" vertex="1">
          <mxGeometry x="90" y="71" width="10" height="29" as="geometry" />
        </mxCell>
        <mxCell id="fJ2e_rolW9SCwPJDsatI-196" value="" style="fontColor=#0066CC;verticalAlign=top;verticalLabelPosition=bottom;labelPosition=center;align=center;html=1;outlineConnect=0;fillColor=#CCCCCC;strokeColor=#6881B3;gradientColor=none;gradientDirection=north;strokeWidth=2;shape=mxgraph.networks.pc;" parent="fJ2e_rolW9SCwPJDsatI-191" vertex="1">
          <mxGeometry x="19" y="22.09" width="23.43" height="23.5" as="geometry" />
        </mxCell>
        <mxCell id="fJ2e_rolW9SCwPJDsatI-197" value="" style="fontColor=#0066CC;verticalAlign=top;verticalLabelPosition=bottom;labelPosition=center;align=center;html=1;outlineConnect=0;fillColor=#CCCCCC;strokeColor=#6881B3;gradientColor=none;gradientDirection=north;strokeWidth=2;shape=mxgraph.networks.phone_2;" parent="fJ2e_rolW9SCwPJDsatI-191" vertex="1">
          <mxGeometry x="50" y="24.759999999999998" width="20.66" height="18.16" as="geometry" />
        </mxCell>
        <mxCell id="fJ2e_rolW9SCwPJDsatI-198" value="" style="fontColor=#0066CC;verticalAlign=top;verticalLabelPosition=bottom;labelPosition=center;align=center;html=1;outlineConnect=0;fillColor=#CCCCCC;strokeColor=#6881B3;gradientColor=none;gradientDirection=north;strokeWidth=2;shape=mxgraph.networks.printer;" parent="fJ2e_rolW9SCwPJDsatI-191" vertex="1">
          <mxGeometry x="23.43" y="55.09" width="21.57" height="14.91" as="geometry" />
        </mxCell>
        <mxCell id="fJ2e_rolW9SCwPJDsatI-199" value="" style="endArrow=none;html=1;rounded=0;fontSize=12;startSize=8;endSize=8;curved=0;strokeColor=#99004D;strokeWidth=2;" parent="fJ2e_rolW9SCwPJDsatI-191" target="fJ2e_rolW9SCwPJDsatI-197" edge="1">
          <mxGeometry width="50" height="50" relative="1" as="geometry">
            <mxPoint x="60" y="10" as="sourcePoint" />
            <mxPoint x="60" y="24" as="targetPoint" />
          </mxGeometry>
        </mxCell>
        <mxCell id="fJ2e_rolW9SCwPJDsatI-200" value="" style="endArrow=none;html=1;rounded=0;fontSize=12;startSize=8;endSize=8;curved=0;strokeColor=#99004D;strokeWidth=2;exitX=0.9;exitY=0.607;exitDx=0;exitDy=0;exitPerimeter=0;" parent="fJ2e_rolW9SCwPJDsatI-191" edge="1">
          <mxGeometry width="50" height="50" relative="1" as="geometry">
            <mxPoint x="60.79140000000007" y="10.043999999999727" as="sourcePoint" />
            <mxPoint x="10" y="10.090000000000003" as="targetPoint" />
          </mxGeometry>
        </mxCell>
        <mxCell id="fJ2e_rolW9SCwPJDsatI-201" value="" style="endArrow=none;html=1;rounded=0;fontSize=12;startSize=8;endSize=8;curved=0;strokeColor=#99004D;strokeWidth=4;" parent="fJ2e_rolW9SCwPJDsatI-191" edge="1">
          <mxGeometry width="50" height="50" relative="1" as="geometry">
            <mxPoint x="10" y="10.759999999999991" as="sourcePoint" />
            <mxPoint x="10" y="32.09" as="targetPoint" />
          </mxGeometry>
        </mxCell>
        <mxCell id="fJ2e_rolW9SCwPJDsatI-202" value="" style="endArrow=none;html=1;rounded=0;fontSize=12;startSize=8;endSize=8;curved=0;strokeColor=#99004D;strokeWidth=2;entryX=0.5;entryY=0;entryDx=0;entryDy=0;entryPerimeter=0;" parent="fJ2e_rolW9SCwPJDsatI-191" target="fJ2e_rolW9SCwPJDsatI-198" edge="1">
          <mxGeometry width="50" height="50" relative="1" as="geometry">
            <mxPoint x="34.05000000000001" y="45.59" as="sourcePoint" />
            <mxPoint x="34.05000000000001" y="59.59" as="targetPoint" />
          </mxGeometry>
        </mxCell>
        <mxCell id="fJ2e_rolW9SCwPJDsatI-203" value="" style="endArrow=none;html=1;rounded=0;fontSize=12;startSize=8;endSize=8;curved=0;strokeColor=#99004D;strokeWidth=2;entryX=0;entryY=0.426;entryDx=0;entryDy=0;entryPerimeter=0;" parent="fJ2e_rolW9SCwPJDsatI-191" target="fJ2e_rolW9SCwPJDsatI-196" edge="1">
          <mxGeometry width="50" height="50" relative="1" as="geometry">
            <mxPoint x="11" y="32.09" as="sourcePoint" />
            <mxPoint x="18" y="32.09" as="targetPoint" />
          </mxGeometry>
        </mxCell>
        <mxCell id="fJ2e_rolW9SCwPJDsatI-204" value="" style="group;rotation=-180;" parent="1" vertex="1" connectable="0">
          <mxGeometry x="3340.1543283913347" y="822.8701546408913" width="132.67000000000002" height="100.17000000000002" as="geometry" />
        </mxCell>
        <mxCell id="fJ2e_rolW9SCwPJDsatI-205" value="" style="verticalLabelPosition=bottom;html=1;verticalAlign=top;align=center;shape=mxgraph.floorplan.wallU;fillColor=strokeColor;rotation=-90;direction=east;" parent="fJ2e_rolW9SCwPJDsatI-204" vertex="1">
          <mxGeometry width="100.14" height="100.2" as="geometry" />
        </mxCell>
        <mxCell id="fJ2e_rolW9SCwPJDsatI-206" value="" style="verticalLabelPosition=bottom;html=1;verticalAlign=top;align=center;shape=mxgraph.floorplan.wall;fillColor=strokeColor;direction=south;rotation=-180;" parent="fJ2e_rolW9SCwPJDsatI-204" vertex="1">
          <mxGeometry x="90" y="1" width="10" height="29" as="geometry" />
        </mxCell>
        <mxCell id="fJ2e_rolW9SCwPJDsatI-207" value="" style="verticalLabelPosition=bottom;html=1;verticalAlign=top;align=center;shape=mxgraph.floorplan.doorRight;aspect=fixed;direction=south;rotation=-180;" parent="fJ2e_rolW9SCwPJDsatI-204" vertex="1">
          <mxGeometry x="90" y="30" width="42.5" height="40" as="geometry" />
        </mxCell>
        <mxCell id="fJ2e_rolW9SCwPJDsatI-208" value="" style="verticalLabelPosition=bottom;html=1;verticalAlign=top;align=center;shape=mxgraph.floorplan.wall;fillColor=strokeColor;direction=south;rotation=-180;" parent="fJ2e_rolW9SCwPJDsatI-204" vertex="1">
          <mxGeometry x="90" y="71" width="10" height="19" as="geometry" />
        </mxCell>
        <mxCell id="fJ2e_rolW9SCwPJDsatI-209" value="" style="fontColor=#0066CC;verticalAlign=top;verticalLabelPosition=bottom;labelPosition=center;align=center;html=1;outlineConnect=0;fillColor=#CCCCCC;strokeColor=#6881B3;gradientColor=none;gradientDirection=north;strokeWidth=2;shape=mxgraph.networks.pc;" parent="fJ2e_rolW9SCwPJDsatI-204" vertex="1">
          <mxGeometry x="28" y="23.090000000000032" width="23.43" height="23.5" as="geometry" />
        </mxCell>
        <mxCell id="fJ2e_rolW9SCwPJDsatI-210" value="" style="fontColor=#0066CC;verticalAlign=top;verticalLabelPosition=bottom;labelPosition=center;align=center;html=1;outlineConnect=0;fillColor=#CCCCCC;strokeColor=#6881B3;gradientColor=none;gradientDirection=north;strokeWidth=2;shape=mxgraph.networks.phone_2;" parent="fJ2e_rolW9SCwPJDsatI-204" vertex="1">
          <mxGeometry x="59" y="25.75999999999999" width="20.66" height="18.16" as="geometry" />
        </mxCell>
        <mxCell id="fJ2e_rolW9SCwPJDsatI-211" value="" style="fontColor=#0066CC;verticalAlign=top;verticalLabelPosition=bottom;labelPosition=center;align=center;html=1;outlineConnect=0;fillColor=#CCCCCC;strokeColor=#6881B3;gradientColor=none;gradientDirection=north;strokeWidth=2;shape=mxgraph.networks.printer;" parent="fJ2e_rolW9SCwPJDsatI-204" vertex="1">
          <mxGeometry x="32.43000000000001" y="56.09000000000003" width="21.57" height="14.91" as="geometry" />
        </mxCell>
        <mxCell id="fJ2e_rolW9SCwPJDsatI-212" value="" style="endArrow=none;html=1;rounded=0;fontSize=12;startSize=8;endSize=8;curved=0;strokeColor=#99004D;strokeWidth=2;" parent="fJ2e_rolW9SCwPJDsatI-204" target="fJ2e_rolW9SCwPJDsatI-210" edge="1">
          <mxGeometry width="50" height="50" relative="1" as="geometry">
            <mxPoint x="69" y="11" as="sourcePoint" />
            <mxPoint x="69" y="25" as="targetPoint" />
          </mxGeometry>
        </mxCell>
        <mxCell id="fJ2e_rolW9SCwPJDsatI-213" value="" style="endArrow=none;html=1;rounded=0;fontSize=12;startSize=8;endSize=8;curved=0;strokeColor=#99004D;strokeWidth=2;exitX=0.9;exitY=0.607;exitDx=0;exitDy=0;exitPerimeter=0;" parent="fJ2e_rolW9SCwPJDsatI-204" edge="1">
          <mxGeometry width="50" height="50" relative="1" as="geometry">
            <mxPoint x="69.79140000000007" y="11.043999999999755" as="sourcePoint" />
            <mxPoint x="19" y="11.090000000000032" as="targetPoint" />
          </mxGeometry>
        </mxCell>
        <mxCell id="fJ2e_rolW9SCwPJDsatI-214" value="" style="endArrow=none;html=1;rounded=0;fontSize=12;startSize=8;endSize=8;curved=0;strokeColor=#99004D;strokeWidth=2;" parent="fJ2e_rolW9SCwPJDsatI-204" edge="1">
          <mxGeometry width="50" height="50" relative="1" as="geometry">
            <mxPoint x="20" y="11.759999999999991" as="sourcePoint" />
            <mxPoint x="20" y="33.09000000000003" as="targetPoint" />
          </mxGeometry>
        </mxCell>
        <mxCell id="fJ2e_rolW9SCwPJDsatI-215" value="" style="endArrow=none;html=1;rounded=0;fontSize=12;startSize=8;endSize=8;curved=0;strokeColor=#99004D;strokeWidth=2;entryX=0.5;entryY=0;entryDx=0;entryDy=0;entryPerimeter=0;" parent="fJ2e_rolW9SCwPJDsatI-204" target="fJ2e_rolW9SCwPJDsatI-211" edge="1">
          <mxGeometry width="50" height="50" relative="1" as="geometry">
            <mxPoint x="43.05000000000001" y="46.59000000000003" as="sourcePoint" />
            <mxPoint x="43.05000000000001" y="60.59000000000003" as="targetPoint" />
          </mxGeometry>
        </mxCell>
        <mxCell id="fJ2e_rolW9SCwPJDsatI-216" value="" style="endArrow=none;html=1;rounded=0;fontSize=12;startSize=8;endSize=8;curved=0;strokeColor=#99004D;strokeWidth=2;exitX=0.666;exitY=0.121;exitDx=0;exitDy=0;exitPerimeter=0;" parent="fJ2e_rolW9SCwPJDsatI-204" source="fJ2e_rolW9SCwPJDsatI-205" edge="1">
          <mxGeometry width="50" height="50" relative="1" as="geometry">
            <mxPoint x="10" y="33.09000000000003" as="sourcePoint" />
            <mxPoint x="27.000000000000057" y="33.39000000000004" as="targetPoint" />
          </mxGeometry>
        </mxCell>
        <mxCell id="fJ2e_rolW9SCwPJDsatI-217" value="" style="group;rotation=-180;" parent="1" vertex="1" connectable="0">
          <mxGeometry x="3339.1543283913347" y="922.8701546408913" width="132.67000000000002" height="100.17000000000002" as="geometry" />
        </mxCell>
        <mxCell id="fJ2e_rolW9SCwPJDsatI-218" value="" style="verticalLabelPosition=bottom;html=1;verticalAlign=top;align=center;shape=mxgraph.floorplan.wallU;fillColor=strokeColor;rotation=-90;direction=east;" parent="fJ2e_rolW9SCwPJDsatI-217" vertex="1">
          <mxGeometry x="1" width="100.14" height="100.2" as="geometry" />
        </mxCell>
        <mxCell id="fJ2e_rolW9SCwPJDsatI-219" value="" style="verticalLabelPosition=bottom;html=1;verticalAlign=top;align=center;shape=mxgraph.floorplan.wall;fillColor=strokeColor;direction=south;rotation=-180;" parent="fJ2e_rolW9SCwPJDsatI-217" vertex="1">
          <mxGeometry x="90" y="1" width="12" height="29" as="geometry" />
        </mxCell>
        <mxCell id="fJ2e_rolW9SCwPJDsatI-220" value="" style="verticalLabelPosition=bottom;html=1;verticalAlign=top;align=center;shape=mxgraph.floorplan.doorRight;aspect=fixed;direction=south;rotation=-180;" parent="fJ2e_rolW9SCwPJDsatI-217" vertex="1">
          <mxGeometry x="90" y="30" width="42.5" height="40" as="geometry" />
        </mxCell>
        <mxCell id="fJ2e_rolW9SCwPJDsatI-221" value="" style="verticalLabelPosition=bottom;html=1;verticalAlign=top;align=center;shape=mxgraph.floorplan.wall;fillColor=strokeColor;direction=south;rotation=-180;" parent="fJ2e_rolW9SCwPJDsatI-217" vertex="1">
          <mxGeometry x="90" y="71" width="13" height="29" as="geometry" />
        </mxCell>
        <mxCell id="fJ2e_rolW9SCwPJDsatI-222" value="" style="fontColor=#0066CC;verticalAlign=top;verticalLabelPosition=bottom;labelPosition=center;align=center;html=1;outlineConnect=0;fillColor=#CCCCCC;strokeColor=#6881B3;gradientColor=none;gradientDirection=north;strokeWidth=2;shape=mxgraph.networks.pc;" parent="fJ2e_rolW9SCwPJDsatI-217" vertex="1">
          <mxGeometry x="28" y="23.090000000000032" width="23.43" height="23.5" as="geometry" />
        </mxCell>
        <mxCell id="fJ2e_rolW9SCwPJDsatI-223" value="" style="fontColor=#0066CC;verticalAlign=top;verticalLabelPosition=bottom;labelPosition=center;align=center;html=1;outlineConnect=0;fillColor=#CCCCCC;strokeColor=#6881B3;gradientColor=none;gradientDirection=north;strokeWidth=2;shape=mxgraph.networks.phone_2;" parent="fJ2e_rolW9SCwPJDsatI-217" vertex="1">
          <mxGeometry x="59" y="25.75999999999999" width="20.66" height="18.16" as="geometry" />
        </mxCell>
        <mxCell id="fJ2e_rolW9SCwPJDsatI-224" value="" style="fontColor=#0066CC;verticalAlign=top;verticalLabelPosition=bottom;labelPosition=center;align=center;html=1;outlineConnect=0;fillColor=#CCCCCC;strokeColor=#6881B3;gradientColor=none;gradientDirection=north;strokeWidth=2;shape=mxgraph.networks.printer;" parent="fJ2e_rolW9SCwPJDsatI-217" vertex="1">
          <mxGeometry x="32.43000000000001" y="56.09000000000003" width="21.57" height="14.91" as="geometry" />
        </mxCell>
        <mxCell id="fJ2e_rolW9SCwPJDsatI-225" value="" style="endArrow=none;html=1;rounded=0;fontSize=12;startSize=8;endSize=8;curved=0;strokeColor=#99004D;strokeWidth=2;" parent="fJ2e_rolW9SCwPJDsatI-217" target="fJ2e_rolW9SCwPJDsatI-223" edge="1">
          <mxGeometry width="50" height="50" relative="1" as="geometry">
            <mxPoint x="69" y="11" as="sourcePoint" />
            <mxPoint x="69" y="25" as="targetPoint" />
          </mxGeometry>
        </mxCell>
        <mxCell id="fJ2e_rolW9SCwPJDsatI-226" value="" style="endArrow=none;html=1;rounded=0;fontSize=12;startSize=8;endSize=8;curved=0;strokeColor=#99004D;strokeWidth=2;exitX=0.9;exitY=0.607;exitDx=0;exitDy=0;exitPerimeter=0;" parent="fJ2e_rolW9SCwPJDsatI-217" edge="1">
          <mxGeometry width="50" height="50" relative="1" as="geometry">
            <mxPoint x="69.79140000000007" y="11.043999999999755" as="sourcePoint" />
            <mxPoint x="19" y="11.090000000000032" as="targetPoint" />
          </mxGeometry>
        </mxCell>
        <mxCell id="fJ2e_rolW9SCwPJDsatI-227" value="" style="endArrow=none;html=1;rounded=0;fontSize=12;startSize=8;endSize=8;curved=0;strokeColor=#99004D;strokeWidth=2;" parent="fJ2e_rolW9SCwPJDsatI-217" edge="1">
          <mxGeometry width="50" height="50" relative="1" as="geometry">
            <mxPoint x="20" y="11.759999999999991" as="sourcePoint" />
            <mxPoint x="20" y="35" as="targetPoint" />
          </mxGeometry>
        </mxCell>
        <mxCell id="fJ2e_rolW9SCwPJDsatI-228" value="" style="endArrow=none;html=1;rounded=0;fontSize=12;startSize=8;endSize=8;curved=0;strokeColor=#99004D;strokeWidth=2;entryX=0.5;entryY=0;entryDx=0;entryDy=0;entryPerimeter=0;" parent="fJ2e_rolW9SCwPJDsatI-217" target="fJ2e_rolW9SCwPJDsatI-224" edge="1">
          <mxGeometry width="50" height="50" relative="1" as="geometry">
            <mxPoint x="43.05000000000001" y="46.59000000000003" as="sourcePoint" />
            <mxPoint x="43.05000000000001" y="60.59000000000003" as="targetPoint" />
          </mxGeometry>
        </mxCell>
        <mxCell id="fJ2e_rolW9SCwPJDsatI-229" value="" style="endArrow=none;html=1;rounded=0;fontSize=12;startSize=8;endSize=8;curved=0;strokeColor=#99004D;strokeWidth=2;entryX=0;entryY=0.5;entryDx=0;entryDy=0;entryPerimeter=0;" parent="fJ2e_rolW9SCwPJDsatI-217" target="fJ2e_rolW9SCwPJDsatI-222" edge="1">
          <mxGeometry width="50" height="50" relative="1" as="geometry">
            <mxPoint x="12" y="35" as="sourcePoint" />
            <mxPoint x="27.000000000000057" y="33.389999999999986" as="targetPoint" />
          </mxGeometry>
        </mxCell>
        <mxCell id="fJ2e_rolW9SCwPJDsatI-230" value="" style="verticalLabelPosition=bottom;html=1;verticalAlign=top;align=center;shape=mxgraph.floorplan.wall;fillColor=strokeColor;direction=south;" parent="1" vertex="1">
          <mxGeometry x="3340.1543283913347" y="1070.8701546408913" width="10" height="20" as="geometry" />
        </mxCell>
        <mxCell id="fJ2e_rolW9SCwPJDsatI-231" value="" style="verticalLabelPosition=bottom;html=1;verticalAlign=top;align=center;shape=mxgraph.floorplan.wall;fillColor=strokeColor;rotation=90;" parent="1" vertex="1">
          <mxGeometry x="3032.034328391335" y="787.9901546408913" width="280.75" height="10" as="geometry" />
        </mxCell>
        <mxCell id="fJ2e_rolW9SCwPJDsatI-232" value="" style="verticalLabelPosition=bottom;html=1;verticalAlign=top;align=center;shape=mxgraph.floorplan.chair;rotation=90;" parent="1" vertex="1">
          <mxGeometry x="3118.1543283913347" y="649.8701546408913" width="41" height="52" as="geometry" />
        </mxCell>
        <mxCell id="fJ2e_rolW9SCwPJDsatI-233" value="" style="verticalLabelPosition=bottom;html=1;verticalAlign=top;align=center;shape=mxgraph.floorplan.chair;rotation=90;" parent="1" vertex="1">
          <mxGeometry x="3118.1543283913347" y="706.1701546408913" width="41" height="52" as="geometry" />
        </mxCell>
        <mxCell id="fJ2e_rolW9SCwPJDsatI-234" value="" style="verticalLabelPosition=bottom;html=1;verticalAlign=top;align=center;shape=mxgraph.floorplan.chair;rotation=90;" parent="1" vertex="1">
          <mxGeometry x="3115.6543283913347" y="758.1701546408913" width="41" height="52" as="geometry" />
        </mxCell>
        <mxCell id="fJ2e_rolW9SCwPJDsatI-235" value="" style="verticalLabelPosition=bottom;html=1;verticalAlign=top;align=center;shape=mxgraph.floorplan.chair;rotation=90;" parent="1" vertex="1">
          <mxGeometry x="3118.1543283913347" y="814.8701546408913" width="41" height="52" as="geometry" />
        </mxCell>
        <mxCell id="fJ2e_rolW9SCwPJDsatI-236" value="" style="group;rotation=-180;" parent="1" vertex="1" connectable="0">
          <mxGeometry x="3186.1543283913347" y="652.8701546408913" width="54.5" height="206" as="geometry" />
        </mxCell>
        <mxCell id="fJ2e_rolW9SCwPJDsatI-237" value="" style="verticalLabelPosition=bottom;html=1;verticalAlign=top;align=center;shape=mxgraph.floorplan.chair;rotation=-90;" parent="fJ2e_rolW9SCwPJDsatI-236" vertex="1">
          <mxGeometry x="5" y="160" width="41" height="52" as="geometry" />
        </mxCell>
        <mxCell id="fJ2e_rolW9SCwPJDsatI-238" value="" style="verticalLabelPosition=bottom;html=1;verticalAlign=top;align=center;shape=mxgraph.floorplan.chair;rotation=-90;" parent="fJ2e_rolW9SCwPJDsatI-236" vertex="1">
          <mxGeometry x="5" y="103" width="41" height="52" as="geometry" />
        </mxCell>
        <mxCell id="fJ2e_rolW9SCwPJDsatI-239" value="" style="verticalLabelPosition=bottom;html=1;verticalAlign=top;align=center;shape=mxgraph.floorplan.chair;rotation=-90;" parent="fJ2e_rolW9SCwPJDsatI-236" vertex="1">
          <mxGeometry x="8" y="51" width="41" height="52" as="geometry" />
        </mxCell>
        <mxCell id="fJ2e_rolW9SCwPJDsatI-240" value="" style="verticalLabelPosition=bottom;html=1;verticalAlign=top;align=center;shape=mxgraph.floorplan.chair;rotation=-90;" parent="fJ2e_rolW9SCwPJDsatI-236" vertex="1">
          <mxGeometry x="6" y="-5" width="41" height="52" as="geometry" />
        </mxCell>
        <mxCell id="fJ2e_rolW9SCwPJDsatI-241" value="" style="verticalLabelPosition=bottom;html=1;verticalAlign=top;align=center;shape=mxgraph.floorplan.chair;rotation=90;" parent="1" vertex="1">
          <mxGeometry x="3118.1543283913347" y="864.8701546408913" width="41" height="52" as="geometry" />
        </mxCell>
        <mxCell id="fJ2e_rolW9SCwPJDsatI-242" value="" style="verticalLabelPosition=bottom;html=1;verticalAlign=top;align=center;shape=mxgraph.floorplan.chair;rotation=-90;" parent="1" vertex="1">
          <mxGeometry x="3186.1543283913347" y="860.8701546408913" width="41" height="52" as="geometry" />
        </mxCell>
        <mxCell id="fJ2e_rolW9SCwPJDsatI-243" value="" style="group" parent="1" vertex="1" connectable="0">
          <mxGeometry x="2893.1543283913347" y="718.8701546408913" width="148" height="100" as="geometry" />
        </mxCell>
        <mxCell id="fJ2e_rolW9SCwPJDsatI-244" value="" style="verticalLabelPosition=bottom;html=1;verticalAlign=top;align=center;shape=mxgraph.floorplan.wallU;fillColor=strokeColor;rotation=90;" parent="fJ2e_rolW9SCwPJDsatI-243" vertex="1">
          <mxGeometry x="43.679142877282025" width="104.32085712271798" height="100" as="geometry" />
        </mxCell>
        <mxCell id="fJ2e_rolW9SCwPJDsatI-245" value="" style="verticalLabelPosition=bottom;html=1;verticalAlign=top;align=center;shape=mxgraph.floorplan.doorRight;aspect=fixed;direction=south;" parent="fJ2e_rolW9SCwPJDsatI-243" vertex="1">
          <mxGeometry y="30" width="42.5" height="40" as="geometry" />
        </mxCell>
        <mxCell id="fJ2e_rolW9SCwPJDsatI-246" value="" style="fontColor=#0066CC;verticalAlign=top;verticalLabelPosition=bottom;labelPosition=center;align=center;html=1;outlineConnect=0;fillColor=#CCCCCC;strokeColor=#6881B3;gradientColor=none;gradientDirection=north;strokeWidth=2;shape=mxgraph.networks.pc;" parent="fJ2e_rolW9SCwPJDsatI-243" vertex="1">
          <mxGeometry x="80.18999999999994" y="20.090000000000032" width="23.43" height="23.5" as="geometry" />
        </mxCell>
        <mxCell id="fJ2e_rolW9SCwPJDsatI-247" value="" style="fontColor=#0066CC;verticalAlign=top;verticalLabelPosition=bottom;labelPosition=center;align=center;html=1;outlineConnect=0;fillColor=#CCCCCC;strokeColor=#6881B3;gradientColor=none;gradientDirection=north;strokeWidth=2;shape=mxgraph.networks.phone_2;" parent="fJ2e_rolW9SCwPJDsatI-243" vertex="1">
          <mxGeometry x="111.18999999999994" y="22.75999999999999" width="20.66" height="18.16" as="geometry" />
        </mxCell>
        <mxCell id="fJ2e_rolW9SCwPJDsatI-248" value="" style="fontColor=#0066CC;verticalAlign=top;verticalLabelPosition=bottom;labelPosition=center;align=center;html=1;outlineConnect=0;fillColor=#CCCCCC;strokeColor=#6881B3;gradientColor=none;gradientDirection=north;strokeWidth=2;shape=mxgraph.networks.printer;" parent="fJ2e_rolW9SCwPJDsatI-243" vertex="1">
          <mxGeometry x="84.62" y="53.09000000000003" width="21.57" height="14.91" as="geometry" />
        </mxCell>
        <mxCell id="fJ2e_rolW9SCwPJDsatI-249" value="" style="endArrow=none;html=1;rounded=0;fontSize=12;startSize=8;endSize=8;curved=0;strokeColor=#99004D;strokeWidth=2;" parent="fJ2e_rolW9SCwPJDsatI-243" target="fJ2e_rolW9SCwPJDsatI-247" edge="1">
          <mxGeometry width="50" height="50" relative="1" as="geometry">
            <mxPoint x="121.18999999999994" y="8" as="sourcePoint" />
            <mxPoint x="121.18999999999994" y="22" as="targetPoint" />
          </mxGeometry>
        </mxCell>
        <mxCell id="fJ2e_rolW9SCwPJDsatI-250" value="" style="endArrow=none;html=1;rounded=0;fontSize=12;startSize=8;endSize=8;curved=0;strokeColor=#99004D;strokeWidth=2;exitX=0.109;exitY=0.514;exitDx=0;exitDy=0;exitPerimeter=0;entryX=0.113;entryY=0.094;entryDx=0;entryDy=0;entryPerimeter=0;" parent="fJ2e_rolW9SCwPJDsatI-243" edge="1">
          <mxGeometry width="50" height="50" relative="1" as="geometry">
            <mxPoint x="92.15999999999997" y="8" as="sourcePoint" />
            <mxPoint x="135.15999999999997" y="8" as="targetPoint" />
          </mxGeometry>
        </mxCell>
        <mxCell id="fJ2e_rolW9SCwPJDsatI-251" value="" style="endArrow=none;html=1;rounded=0;fontSize=12;startSize=8;endSize=8;curved=0;strokeColor=#99004D;strokeWidth=2;entryX=0.5;entryY=0;entryDx=0;entryDy=0;entryPerimeter=0;" parent="fJ2e_rolW9SCwPJDsatI-243" target="fJ2e_rolW9SCwPJDsatI-248" edge="1">
          <mxGeometry width="50" height="50" relative="1" as="geometry">
            <mxPoint x="95.2399999999999" y="43.59000000000003" as="sourcePoint" />
            <mxPoint x="95.2399999999999" y="57.59000000000003" as="targetPoint" />
          </mxGeometry>
        </mxCell>
        <mxCell id="fJ2e_rolW9SCwPJDsatI-252" value="" style="endArrow=none;html=1;rounded=0;fontSize=12;startSize=8;endSize=8;curved=0;strokeColor=#99004D;strokeWidth=2;" parent="fJ2e_rolW9SCwPJDsatI-243" target="fJ2e_rolW9SCwPJDsatI-246" edge="1">
          <mxGeometry width="50" height="50" relative="1" as="geometry">
            <mxPoint x="92.15999999999997" y="8" as="sourcePoint" />
            <mxPoint x="95.07999999999993" y="17.409999999999968" as="targetPoint" />
          </mxGeometry>
        </mxCell>
        <mxCell id="fJ2e_rolW9SCwPJDsatI-253" value="" style="endArrow=none;html=1;rounded=0;fontSize=12;startSize=8;endSize=8;curved=0;strokeColor=#99004D;strokeWidth=4;exitX=0.119;exitY=0.101;exitDx=0;exitDy=0;exitPerimeter=0;" parent="fJ2e_rolW9SCwPJDsatI-243" edge="1">
          <mxGeometry width="50" height="50" relative="1" as="geometry">
            <mxPoint x="136.3" y="9" as="sourcePoint" />
            <mxPoint x="136" y="296" as="targetPoint" />
          </mxGeometry>
        </mxCell>
        <mxCell id="fJ2e_rolW9SCwPJDsatI-254" value="" style="verticalLabelPosition=bottom;html=1;verticalAlign=top;align=center;shape=mxgraph.floorplan.wall;fillColor=strokeColor;direction=south;" parent="1" vertex="1">
          <mxGeometry x="2929.1543283913347" y="989.8701546408913" width="10" height="39" as="geometry" />
        </mxCell>
        <mxCell id="fJ2e_rolW9SCwPJDsatI-255" value="" style="verticalLabelPosition=bottom;html=1;verticalAlign=top;align=center;shape=mxgraph.floorplan.doorRight;aspect=fixed;direction=south;" parent="1" vertex="1">
          <mxGeometry x="3308.1543283913347" y="1029.8701546408913" width="42.5" height="40" as="geometry" />
        </mxCell>
        <mxCell id="fJ2e_rolW9SCwPJDsatI-256" value="" style="verticalLabelPosition=bottom;html=1;verticalAlign=top;align=center;shape=mxgraph.floorplan.wall;fillColor=strokeColor;direction=south;" parent="1" vertex="1">
          <mxGeometry x="3340.1543283913347" y="1017.5001546408912" width="10" height="11.37" as="geometry" />
        </mxCell>
        <mxCell id="fJ2e_rolW9SCwPJDsatI-257" value="" style="verticalLabelPosition=bottom;html=1;verticalAlign=top;align=center;shape=mxgraph.floorplan.room;fillColor=strokeColor;" parent="1" vertex="1">
          <mxGeometry x="2797.1543283913347" y="1466.8701546408913" width="649" height="729" as="geometry" />
        </mxCell>
        <mxCell id="fJ2e_rolW9SCwPJDsatI-258" value="" style="verticalLabelPosition=bottom;html=1;verticalAlign=top;align=center;shape=mxgraph.floorplan.wallU;fillColor=strokeColor;rotation=90;" parent="1" vertex="1">
          <mxGeometry x="3384.6543283913347" y="1038.3701546408913" width="105" height="194" as="geometry" />
        </mxCell>
        <mxCell id="fJ2e_rolW9SCwPJDsatI-259" value="&lt;div&gt;&lt;b style=&quot;background-color: transparent; color: light-dark(rgb(0, 0, 0), rgb(255, 255, 255));&quot;&gt;1 - кабинет начальника паспортного стола&lt;/b&gt;&lt;/div&gt;&lt;div&gt;&lt;b style=&quot;background-color: transparent; color: light-dark(rgb(0, 0, 0), rgb(255, 255, 255));&quot;&gt;2- архив долгосрочного хранения&lt;/b&gt;&lt;/div&gt;&lt;b style=&quot;background-color: transparent; color: light-dark(rgb(0, 0, 0), rgb(255, 255, 255));&quot;&gt;3 -&amp;nbsp;&lt;/b&gt;&lt;b&gt;санузлы&lt;/b&gt;&lt;b style=&quot;background-color: transparent; color: light-dark(rgb(0, 0, 0), rgb(255, 255, 255));&quot;&gt;&lt;br&gt;4 - лестница на 1 этаж&lt;br&gt;5- it-отдел&lt;br&gt;6- серверная&lt;/b&gt;&lt;div&gt;&lt;b style=&quot;background-color: transparent; color: light-dark(rgb(0, 0, 0), rgb(255, 255, 255));&quot;&gt;7 - Офисное пространство&lt;br&gt;для сотрудников&lt;br&gt;8&amp;nbsp;&lt;/b&gt;&lt;span style=&quot;font-family: &amp;quot;Times New Roman&amp;quot;, serif; font-size: 14pt; background-color: transparent; color: light-dark(rgb(0, 0, 0), rgb(255, 255, 255));&quot;&gt;конференц-зал&lt;/span&gt;&lt;/div&gt;&lt;div&gt;&lt;span style=&quot;font-family: &amp;quot;Times New Roman&amp;quot;, serif; font-size: 14pt; background-color: transparent; color: light-dark(rgb(0, 0, 0), rgb(255, 255, 255));&quot;&gt;9-&amp;nbsp;&amp;nbsp;&lt;/span&gt;&lt;span style=&quot;font-family: &amp;quot;Times New Roman&amp;quot;, serif; font-size: 14pt; background-color: transparent; color: light-dark(rgb(0, 0, 0), rgb(255, 255, 255));&quot;&gt;комната отдыха для сотрудников&lt;/span&gt;&lt;/div&gt;" style="text;html=1;align=center;verticalAlign=middle;whiteSpace=wrap;rounded=0;fontSize=25;" parent="1" vertex="1">
          <mxGeometry x="3572.0043283913346" y="1521.0001546408914" width="620" height="336" as="geometry" />
        </mxCell>
        <mxCell id="fJ2e_rolW9SCwPJDsatI-260" value="" style="group;direction=west;rotation=-90;" parent="1" vertex="1" connectable="0">
          <mxGeometry x="2924.1543283913347" y="1496.8701546408913" width="142" height="70" as="geometry" />
        </mxCell>
        <mxCell id="fJ2e_rolW9SCwPJDsatI-261" value="" style="verticalLabelPosition=bottom;html=1;verticalAlign=top;align=center;shape=mxgraph.floorplan.wall;fillColor=strokeColor;direction=west;rotation=-90;" parent="fJ2e_rolW9SCwPJDsatI-260" vertex="1">
          <mxGeometry x="24.5" y="58.5" width="60" height="10" as="geometry" />
        </mxCell>
        <mxCell id="fJ2e_rolW9SCwPJDsatI-262" value="" style="verticalLabelPosition=bottom;html=1;verticalAlign=top;align=center;shape=mxgraph.floorplan.wall;fillColor=strokeColor;direction=west;rotation=-90;" parent="fJ2e_rolW9SCwPJDsatI-260" vertex="1">
          <mxGeometry x="47.5" y="-20" width="14" height="10" as="geometry" />
        </mxCell>
        <mxCell id="fJ2e_rolW9SCwPJDsatI-263" value="" style="verticalLabelPosition=bottom;html=1;verticalAlign=top;align=center;shape=mxgraph.floorplan.doorRight;aspect=fixed;rotation=-90;" parent="fJ2e_rolW9SCwPJDsatI-260" vertex="1">
          <mxGeometry x="50.3" y="-10" width="41.41" height="44" as="geometry" />
        </mxCell>
        <mxCell id="fJ2e_rolW9SCwPJDsatI-264" value="" style="verticalLabelPosition=bottom;html=1;verticalAlign=top;align=center;shape=mxgraph.floorplan.wall;fillColor=strokeColor;" parent="1" vertex="1">
          <mxGeometry x="2804.1543283913347" y="1581.8701546408913" width="179" height="10" as="geometry" />
        </mxCell>
        <mxCell id="fJ2e_rolW9SCwPJDsatI-265" value="" style="verticalLabelPosition=bottom;html=1;verticalAlign=top;align=center;shape=mxgraph.floorplan.wall;fillColor=strokeColor;rotation=90;direction=south;" parent="1" vertex="1">
          <mxGeometry x="3346.4443283913347" y="1033.1601546408913" width="10" height="300.18" as="geometry" />
        </mxCell>
        <mxCell id="fJ2e_rolW9SCwPJDsatI-266" value="" style="group" parent="1" vertex="1" connectable="0">
          <mxGeometry x="2973.1493283913346" y="1591.8701546408913" width="44" height="198.5" as="geometry" />
        </mxCell>
        <mxCell id="fJ2e_rolW9SCwPJDsatI-267" value="" style="verticalLabelPosition=bottom;html=1;verticalAlign=top;align=center;shape=mxgraph.floorplan.wall;fillColor=strokeColor;direction=west;rotation=-90;" parent="fJ2e_rolW9SCwPJDsatI-266" vertex="1">
          <mxGeometry x="-33.20500000000004" y="154.5" width="78" height="10" as="geometry" />
        </mxCell>
        <mxCell id="fJ2e_rolW9SCwPJDsatI-268" value="" style="verticalLabelPosition=bottom;html=1;verticalAlign=top;align=center;shape=mxgraph.floorplan.wall;fillColor=strokeColor;direction=west;rotation=-90;" parent="fJ2e_rolW9SCwPJDsatI-266" vertex="1">
          <mxGeometry x="-34.70500000000004" y="35" width="80" height="10" as="geometry" />
        </mxCell>
        <mxCell id="fJ2e_rolW9SCwPJDsatI-269" value="" style="verticalLabelPosition=bottom;html=1;verticalAlign=top;align=center;shape=mxgraph.floorplan.doorRight;aspect=fixed;rotation=-90;" parent="fJ2e_rolW9SCwPJDsatI-266" vertex="1">
          <mxGeometry x="1.294999999999959" y="78" width="41.41" height="44" as="geometry" />
        </mxCell>
        <mxCell id="fJ2e_rolW9SCwPJDsatI-270" value="" style="verticalLabelPosition=bottom;html=1;verticalAlign=top;align=center;shape=mxgraph.floorplan.wall;fillColor=strokeColor;" parent="1" vertex="1">
          <mxGeometry x="2805.1543283913347" y="1786.3701546408913" width="179" height="10" as="geometry" />
        </mxCell>
        <mxCell id="fJ2e_rolW9SCwPJDsatI-271" value="" style="group;direction=west;rotation=90;" parent="1" vertex="1" connectable="0">
          <mxGeometry x="3090.6543283913347" y="1940.0001546408914" width="142" height="81.75" as="geometry" />
        </mxCell>
        <mxCell id="fJ2e_rolW9SCwPJDsatI-273" value="" style="verticalLabelPosition=bottom;html=1;verticalAlign=top;align=center;shape=mxgraph.floorplan.wall;fillColor=strokeColor;direction=west;rotation=90;" parent="fJ2e_rolW9SCwPJDsatI-271" vertex="1">
          <mxGeometry x="56.25" y="71.75" width="63.5" height="10" as="geometry" />
        </mxCell>
        <mxCell id="fJ2e_rolW9SCwPJDsatI-274" value="" style="verticalLabelPosition=bottom;html=1;verticalAlign=top;align=center;shape=mxgraph.floorplan.doorRight;aspect=fixed;rotation=90;" parent="fJ2e_rolW9SCwPJDsatI-271" vertex="1">
          <mxGeometry x="51" y="2" width="41.41" height="44" as="geometry" />
        </mxCell>
        <mxCell id="fJ2e_rolW9SCwPJDsatI-275" value="" style="verticalLabelPosition=bottom;html=1;verticalAlign=top;align=center;shape=mxgraph.floorplan.wall;fillColor=strokeColor;direction=south;rotation=90;" parent="1" vertex="1">
          <mxGeometry x="3302.784328391335" y="1783.7501546408914" width="10" height="255.25" as="geometry" />
        </mxCell>
        <mxCell id="fJ2e_rolW9SCwPJDsatI-276" value="" style="verticalLabelPosition=bottom;html=1;verticalAlign=top;align=center;shape=mxgraph.floorplan.wall;fillColor=strokeColor;direction=west;rotation=-180;" parent="1" vertex="1">
          <mxGeometry x="2896.1543283913347" y="1992.8701546408913" width="90" height="10" as="geometry" />
        </mxCell>
        <mxCell id="fJ2e_rolW9SCwPJDsatI-277" value="" style="verticalLabelPosition=bottom;html=1;verticalAlign=top;align=center;shape=mxgraph.floorplan.wall;fillColor=strokeColor;direction=west;rotation=-180;" parent="1" vertex="1">
          <mxGeometry x="2806.1543283913347" y="1992.8701546408913" width="48" height="10" as="geometry" />
        </mxCell>
        <mxCell id="fJ2e_rolW9SCwPJDsatI-278" value="" style="verticalLabelPosition=bottom;html=1;verticalAlign=top;align=center;shape=mxgraph.floorplan.doorRight;aspect=fixed;rotation=-180;" parent="1" vertex="1">
          <mxGeometry x="2854.1543283913347" y="1958.8701546408913" width="41.41" height="44" as="geometry" />
        </mxCell>
        <mxCell id="fJ2e_rolW9SCwPJDsatI-279" value="" style="verticalLabelPosition=bottom;html=1;verticalAlign=top;align=center;shape=mxgraph.floorplan.wall;fillColor=strokeColor;direction=west;rotation=-90;" parent="1" vertex="1">
          <mxGeometry x="2938.054328391335" y="1954.2701546408914" width="87.79" height="10" as="geometry" />
        </mxCell>
        <mxCell id="fJ2e_rolW9SCwPJDsatI-280" value="" style="verticalLabelPosition=bottom;html=1;verticalAlign=top;align=center;shape=mxgraph.floorplan.wall;fillColor=strokeColor;direction=west;rotation=-90;" parent="1" vertex="1">
          <mxGeometry x="2897.34" y="1786.43" width="164.23" height="10" as="geometry" />
        </mxCell>
        <mxCell id="fJ2e_rolW9SCwPJDsatI-281" value="" style="verticalLabelPosition=bottom;html=1;verticalAlign=top;align=center;shape=mxgraph.floorplan.doorRight;aspect=fixed;rotation=-90;" parent="1" vertex="1">
          <mxGeometry x="2977.4443283913347" y="1872.8701546408913" width="41.41" height="44" as="geometry" />
        </mxCell>
        <mxCell id="fJ2e_rolW9SCwPJDsatI-282" value="" style="verticalLabelPosition=bottom;html=1;verticalAlign=top;align=center;shape=mxgraph.floorplan.wall;fillColor=strokeColor;rotation=90;" parent="1" vertex="1">
          <mxGeometry x="2883.9443283913347" y="2088.000154640891" width="196" height="10" as="geometry" />
        </mxCell>
        <mxCell id="fJ2e_rolW9SCwPJDsatI-283" value="" style="verticalLabelPosition=bottom;html=1;verticalAlign=top;align=center;shape=mxgraph.floorplan.wall;fillColor=strokeColor;" parent="1" vertex="1">
          <mxGeometry x="3173.1543283913347" y="2040.5001546408912" width="100" height="10" as="geometry" />
        </mxCell>
        <mxCell id="fJ2e_rolW9SCwPJDsatI-284" value="" style="group;rotation=-180;" parent="1" vertex="1" connectable="0">
          <mxGeometry x="3228.159328391335" y="1658.3701546408913" width="302.33500000000004" height="211.25" as="geometry" />
        </mxCell>
        <mxCell id="fJ2e_rolW9SCwPJDsatI-285" value="" style="verticalLabelPosition=bottom;html=1;verticalAlign=top;align=center;shape=mxgraph.floorplan.wall;fillColor=strokeColor;direction=west;rotation=-270;" parent="fJ2e_rolW9SCwPJDsatI-284" vertex="1">
          <mxGeometry x="-142.25" y="187.25" width="184.5" height="10" as="geometry" />
        </mxCell>
        <mxCell id="fJ2e_rolW9SCwPJDsatI-286" value="" style="verticalLabelPosition=bottom;html=1;verticalAlign=top;align=center;shape=mxgraph.floorplan.doorRight;aspect=fixed;rotation=-270;" parent="fJ2e_rolW9SCwPJDsatI-284" vertex="1">
          <mxGeometry x="-88" y="58" width="41.41" height="44" as="geometry" />
        </mxCell>
        <mxCell id="fJ2e_rolW9SCwPJDsatI-287" value="" style="verticalLabelPosition=bottom;html=1;verticalAlign=top;align=center;shape=mxgraph.floorplan.wall;fillColor=strokeColor;direction=west;rotation=0;" parent="fJ2e_rolW9SCwPJDsatI-284" vertex="1">
          <mxGeometry x="-56" y="19.5" width="266" height="10" as="geometry" />
        </mxCell>
        <mxCell id="fJ2e_rolW9SCwPJDsatI-288" value="" style="fontColor=#0066CC;verticalAlign=top;verticalLabelPosition=bottom;labelPosition=center;align=center;html=1;outlineConnect=0;fillColor=#CCCCCC;strokeColor=#6881B3;gradientColor=none;gradientDirection=north;strokeWidth=2;shape=mxgraph.networks.pc;" parent="fJ2e_rolW9SCwPJDsatI-284" vertex="1">
          <mxGeometry x="-36" y="39.5" width="24" height="25.5" as="geometry" />
        </mxCell>
        <mxCell id="fJ2e_rolW9SCwPJDsatI-289" value="" style="fontColor=#0066CC;verticalAlign=top;verticalLabelPosition=bottom;labelPosition=center;align=center;html=1;outlineConnect=0;fillColor=#CCCCCC;strokeColor=#6881B3;gradientColor=none;gradientDirection=north;strokeWidth=2;shape=mxgraph.networks.phone_2;" parent="fJ2e_rolW9SCwPJDsatI-284" vertex="1">
          <mxGeometry x="-5" y="42.17" width="21" height="20.83" as="geometry" />
        </mxCell>
        <mxCell id="fJ2e_rolW9SCwPJDsatI-291" value="" style="endArrow=none;html=1;rounded=0;fontSize=12;startSize=8;endSize=8;curved=0;strokeColor=#99004D;strokeWidth=2;entryX=0.5;entryY=0;entryDx=0;entryDy=0;entryPerimeter=0;" parent="fJ2e_rolW9SCwPJDsatI-284" target="fJ2e_rolW9SCwPJDsatI-290" edge="1">
          <mxGeometry width="50" height="50" relative="1" as="geometry">
            <mxPoint x="-20.95500000000004" y="63" as="sourcePoint" />
            <mxPoint x="-20.95500000000004" y="77" as="targetPoint" />
          </mxGeometry>
        </mxCell>
        <mxCell id="fJ2e_rolW9SCwPJDsatI-292" value="" style="fontColor=#0066CC;verticalAlign=top;verticalLabelPosition=bottom;labelPosition=center;align=center;html=1;outlineConnect=0;fillColor=#CCCCCC;strokeColor=#6881B3;gradientColor=none;gradientDirection=north;strokeWidth=2;shape=mxgraph.networks.pc;" parent="fJ2e_rolW9SCwPJDsatI-284" vertex="1">
          <mxGeometry x="42" y="40.17" width="27.11" height="22.83" as="geometry" />
        </mxCell>
        <mxCell id="fJ2e_rolW9SCwPJDsatI-293" value="" style="fontColor=#0066CC;verticalAlign=top;verticalLabelPosition=bottom;labelPosition=center;align=center;html=1;outlineConnect=0;fillColor=#CCCCCC;strokeColor=#6881B3;gradientColor=none;gradientDirection=north;strokeWidth=2;shape=mxgraph.networks.phone_2;" parent="fJ2e_rolW9SCwPJDsatI-284" vertex="1">
          <mxGeometry x="76.68" y="42.84" width="21.32" height="20.16" as="geometry" />
        </mxCell>
        <mxCell id="fJ2e_rolW9SCwPJDsatI-294" value="" style="fontColor=#0066CC;verticalAlign=top;verticalLabelPosition=bottom;labelPosition=center;align=center;html=1;outlineConnect=0;fillColor=#CCCCCC;strokeColor=#6881B3;gradientColor=none;gradientDirection=north;strokeWidth=2;shape=mxgraph.networks.printer;" parent="fJ2e_rolW9SCwPJDsatI-284" vertex="1">
          <mxGeometry x="50.11" y="73.17" width="21.89" height="16.83" as="geometry" />
        </mxCell>
        <mxCell id="fJ2e_rolW9SCwPJDsatI-295" value="" style="endArrow=none;html=1;rounded=0;fontSize=12;startSize=8;endSize=8;curved=0;strokeColor=#99004D;strokeWidth=2;entryX=0.5;entryY=0;entryDx=0;entryDy=0;entryPerimeter=0;" parent="fJ2e_rolW9SCwPJDsatI-284" target="fJ2e_rolW9SCwPJDsatI-294" edge="1">
          <mxGeometry width="50" height="50" relative="1" as="geometry">
            <mxPoint x="60.724999999999966" y="63.67000000000007" as="sourcePoint" />
            <mxPoint x="60.724999999999966" y="77.67000000000007" as="targetPoint" />
          </mxGeometry>
        </mxCell>
        <mxCell id="fJ2e_rolW9SCwPJDsatI-296" value="" style="fontColor=#0066CC;verticalAlign=top;verticalLabelPosition=bottom;labelPosition=center;align=center;html=1;outlineConnect=0;fillColor=#CCCCCC;strokeColor=#6881B3;gradientColor=none;gradientDirection=north;strokeWidth=2;shape=mxgraph.networks.pc;" parent="fJ2e_rolW9SCwPJDsatI-284" vertex="1">
          <mxGeometry x="125" y="39.5" width="26.43" height="25.5" as="geometry" />
        </mxCell>
        <mxCell id="fJ2e_rolW9SCwPJDsatI-297" value="" style="fontColor=#0066CC;verticalAlign=top;verticalLabelPosition=bottom;labelPosition=center;align=center;html=1;outlineConnect=0;fillColor=#CCCCCC;strokeColor=#6881B3;gradientColor=none;gradientDirection=north;strokeWidth=2;shape=mxgraph.networks.phone_2;" parent="fJ2e_rolW9SCwPJDsatI-284" vertex="1">
          <mxGeometry x="157.84" y="39.5" width="23" height="19.83" as="geometry" />
        </mxCell>
        <mxCell id="fJ2e_rolW9SCwPJDsatI-298" value="" style="fontColor=#0066CC;verticalAlign=top;verticalLabelPosition=bottom;labelPosition=center;align=center;html=1;outlineConnect=0;fillColor=#CCCCCC;strokeColor=#6881B3;gradientColor=none;gradientDirection=north;strokeWidth=2;shape=mxgraph.networks.printer;" parent="fJ2e_rolW9SCwPJDsatI-284" vertex="1">
          <mxGeometry x="130" y="72.5" width="24" height="17.5" as="geometry" />
        </mxCell>
        <mxCell id="fJ2e_rolW9SCwPJDsatI-299" value="" style="endArrow=none;html=1;rounded=0;fontSize=12;startSize=8;endSize=8;curved=0;strokeColor=#99004D;strokeWidth=2;entryX=0.5;entryY=0;entryDx=0;entryDy=0;entryPerimeter=0;" parent="fJ2e_rolW9SCwPJDsatI-284" target="fJ2e_rolW9SCwPJDsatI-298" edge="1">
          <mxGeometry width="50" height="50" relative="1" as="geometry">
            <mxPoint x="143.04499999999996" y="63.00000000000014" as="sourcePoint" />
            <mxPoint x="143.04499999999996" y="77.00000000000014" as="targetPoint" />
          </mxGeometry>
        </mxCell>
        <mxCell id="fJ2e_rolW9SCwPJDsatI-300" value="" style="fontColor=#0066CC;verticalAlign=top;verticalLabelPosition=bottom;labelPosition=center;align=center;html=1;outlineConnect=0;fillColor=#CCCCCC;strokeColor=#6881B3;gradientColor=none;gradientDirection=north;strokeWidth=2;shape=mxgraph.networks.security_camera;rotation=90;flipH=0;direction=north;flipV=1;" parent="fJ2e_rolW9SCwPJDsatI-284" vertex="1">
          <mxGeometry x="163.49" y="88.78" width="32.23" height="32.5" as="geometry" />
        </mxCell>
        <mxCell id="fJ2e_rolW9SCwPJDsatI-305" value="" style="endArrow=none;html=1;rounded=0;fontSize=12;startSize=8;endSize=8;curved=0;strokeColor=#99004D;strokeWidth=2;entryX=0.963;entryY=0.004;entryDx=0;entryDy=0;entryPerimeter=0;exitX=0.011;exitY=-0.023;exitDx=0;exitDy=0;exitPerimeter=0;" parent="fJ2e_rolW9SCwPJDsatI-284" source="fJ2e_rolW9SCwPJDsatI-287" edge="1" target="fJ2e_rolW9SCwPJDsatI-287">
          <mxGeometry width="50" height="50" relative="1" as="geometry">
            <mxPoint x="199.005" y="29.5" as="sourcePoint" />
            <mxPoint x="-43.995000000000005" y="29.5" as="targetPoint" />
          </mxGeometry>
        </mxCell>
        <mxCell id="fJ2e_rolW9SCwPJDsatI-306" value="" style="endArrow=none;html=1;rounded=0;fontSize=12;startSize=8;endSize=8;curved=0;strokeColor=#99004D;strokeWidth=2;" parent="fJ2e_rolW9SCwPJDsatI-284" edge="1">
          <mxGeometry width="50" height="50" relative="1" as="geometry">
            <mxPoint x="60.995000000000005" y="28.5" as="sourcePoint" />
            <mxPoint x="60.995000000000005" y="40.5" as="targetPoint" />
          </mxGeometry>
        </mxCell>
        <mxCell id="fJ2e_rolW9SCwPJDsatI-307" value="" style="endArrow=none;html=1;rounded=0;fontSize=12;startSize=8;endSize=8;curved=0;strokeColor=#99004D;strokeWidth=2;entryX=0.5;entryY=0.11;entryDx=0;entryDy=0;entryPerimeter=0;" parent="fJ2e_rolW9SCwPJDsatI-284" target="fJ2e_rolW9SCwPJDsatI-293" edge="1">
          <mxGeometry width="50" height="50" relative="1" as="geometry">
            <mxPoint x="86.91500000000002" y="29.5" as="sourcePoint" />
            <mxPoint x="86.94999999999999" y="43.83999999999992" as="targetPoint" />
          </mxGeometry>
        </mxCell>
        <mxCell id="fJ2e_rolW9SCwPJDsatI-308" value="" style="endArrow=none;html=1;rounded=0;fontSize=12;startSize=8;endSize=8;curved=0;strokeColor=#99004D;strokeWidth=2;" parent="fJ2e_rolW9SCwPJDsatI-284" edge="1">
          <mxGeometry width="50" height="50" relative="1" as="geometry">
            <mxPoint x="139.995" y="29.5" as="sourcePoint" />
            <mxPoint x="139.995" y="40.5" as="targetPoint" />
          </mxGeometry>
        </mxCell>
        <mxCell id="fJ2e_rolW9SCwPJDsatI-309" value="" style="endArrow=none;html=1;rounded=0;fontSize=12;startSize=8;endSize=8;curved=0;strokeColor=#99004D;strokeWidth=2;entryX=0.5;entryY=0.11;entryDx=0;entryDy=0;entryPerimeter=0;" parent="fJ2e_rolW9SCwPJDsatI-284" target="fJ2e_rolW9SCwPJDsatI-297" edge="1">
          <mxGeometry width="50" height="50" relative="1" as="geometry">
            <mxPoint x="169.235" y="29.5" as="sourcePoint" />
            <mxPoint x="169.235" y="40.5" as="targetPoint" />
          </mxGeometry>
        </mxCell>
        <mxCell id="fJ2e_rolW9SCwPJDsatI-310" value="" style="endArrow=none;html=1;rounded=0;fontSize=12;startSize=8;endSize=8;curved=0;strokeColor=#99004D;strokeWidth=2;" parent="fJ2e_rolW9SCwPJDsatI-284" target="fJ2e_rolW9SCwPJDsatI-289" edge="1">
          <mxGeometry width="50" height="50" relative="1" as="geometry">
            <mxPoint x="5.235000000000014" y="29.5" as="sourcePoint" />
            <mxPoint x="5.235000000000014" y="41.5" as="targetPoint" />
          </mxGeometry>
        </mxCell>
        <mxCell id="fJ2e_rolW9SCwPJDsatI-311" value="" style="endArrow=none;html=1;rounded=0;fontSize=12;startSize=8;endSize=8;curved=0;strokeColor=#99004D;strokeWidth=2;" parent="fJ2e_rolW9SCwPJDsatI-284" edge="1">
          <mxGeometry width="50" height="50" relative="1" as="geometry">
            <mxPoint x="-20.88499999999999" y="29.5" as="sourcePoint" />
            <mxPoint x="-20.88499999999999" y="41.5" as="targetPoint" />
          </mxGeometry>
        </mxCell>
        <mxCell id="fJ2e_rolW9SCwPJDsatI-312" value="" style="endArrow=none;html=1;rounded=0;fontSize=12;startSize=8;endSize=8;curved=0;strokeColor=#99004D;strokeWidth=2;" parent="fJ2e_rolW9SCwPJDsatI-284" edge="1">
          <mxGeometry width="50" height="50" relative="1" as="geometry">
            <mxPoint x="206.995" y="147.5" as="sourcePoint" />
            <mxPoint x="207.995" y="247.5" as="targetPoint" />
          </mxGeometry>
        </mxCell>
        <mxCell id="fJ2e_rolW9SCwPJDsatI-313" value="" style="endArrow=none;html=1;rounded=0;fontSize=12;startSize=8;endSize=8;curved=0;strokeColor=#99004D;strokeWidth=2;entryX=0.984;entryY=0.482;entryDx=0;entryDy=0;entryPerimeter=0;exitX=0.004;exitY=-0.008;exitDx=0;exitDy=0;exitPerimeter=0;" parent="fJ2e_rolW9SCwPJDsatI-284" edge="1">
          <mxGeometry width="50" height="50" relative="1" as="geometry">
            <mxPoint x="207.64000000000016" y="29.5" as="sourcePoint" />
            <mxPoint x="206.99100000000027" y="149.79799999999977" as="targetPoint" />
          </mxGeometry>
        </mxCell>
        <mxCell id="fJ2e_rolW9SCwPJDsatI-314" value="" style="fontColor=#0066CC;verticalAlign=top;verticalLabelPosition=bottom;labelPosition=center;align=center;html=1;outlineConnect=0;fillColor=#CCCCCC;strokeColor=#6881B3;gradientColor=none;gradientDirection=north;strokeWidth=2;shape=mxgraph.networks.pc;rotation=-90;" parent="fJ2e_rolW9SCwPJDsatI-284" vertex="1">
          <mxGeometry x="174.99499999999995" y="161.53000000000023" width="23.43" height="23.5" as="geometry" />
        </mxCell>
        <mxCell id="fJ2e_rolW9SCwPJDsatI-315" value="" style="fontColor=#0066CC;verticalAlign=top;verticalLabelPosition=bottom;labelPosition=center;align=center;html=1;outlineConnect=0;fillColor=#CCCCCC;strokeColor=#6881B3;gradientColor=none;gradientDirection=north;strokeWidth=2;shape=mxgraph.networks.phone_2;rotation=-90;" parent="fJ2e_rolW9SCwPJDsatI-284" vertex="1">
          <mxGeometry x="176.99499999999995" y="134.53000000000023" width="20.66" height="18.16" as="geometry" />
        </mxCell>
        <mxCell id="fJ2e_rolW9SCwPJDsatI-316" value="" style="endArrow=none;html=1;rounded=0;fontSize=12;startSize=8;endSize=8;curved=0;strokeColor=#99004D;strokeWidth=2;" parent="fJ2e_rolW9SCwPJDsatI-284" edge="1">
          <mxGeometry width="50" height="50" relative="1" as="geometry">
            <mxPoint x="196.41999999999985" y="143.56068965517287" as="sourcePoint" />
            <mxPoint x="207.315" y="143.53" as="targetPoint" />
            <Array as="points" />
          </mxGeometry>
        </mxCell>
        <mxCell id="fJ2e_rolW9SCwPJDsatI-317" value="" style="endArrow=none;html=1;rounded=0;fontSize=12;startSize=8;endSize=8;curved=0;strokeColor=#99004D;strokeWidth=2;" parent="fJ2e_rolW9SCwPJDsatI-284" edge="1">
          <mxGeometry width="50" height="50" relative="1" as="geometry">
            <mxPoint x="198.65999999999983" y="170.53068965517267" as="sourcePoint" />
            <mxPoint x="207.355" y="170.61999999999992" as="targetPoint" />
            <Array as="points" />
          </mxGeometry>
        </mxCell>
        <mxCell id="fJ2e_rolW9SCwPJDsatI-318" value="" style="endArrow=none;html=1;rounded=0;fontSize=12;startSize=8;endSize=8;curved=0;strokeColor=#99004D;strokeWidth=2;entryX=0;entryY=0.5;entryDx=0;entryDy=0;entryPerimeter=0;exitX=1;exitY=0.5;exitDx=0;exitDy=0;exitPerimeter=0;" parent="fJ2e_rolW9SCwPJDsatI-284" edge="1">
          <mxGeometry width="50" height="50" relative="1" as="geometry">
            <mxPoint x="169.99499999999998" y="171.5300000000001" as="sourcePoint" />
            <mxPoint x="175.99499999999995" y="171.5300000000001" as="targetPoint" />
          </mxGeometry>
        </mxCell>
        <mxCell id="fJ2e_rolW9SCwPJDsatI-319" value="" style="fontColor=#0066CC;verticalAlign=top;verticalLabelPosition=bottom;labelPosition=center;align=center;html=1;outlineConnect=0;fillColor=#CCCCCC;strokeColor=#6881B3;gradientColor=none;gradientDirection=north;strokeWidth=2;shape=mxgraph.networks.printer;rotation=-90;" parent="fJ2e_rolW9SCwPJDsatI-284" vertex="1">
          <mxGeometry x="151.31499999999994" y="164.53000000000023" width="21.57" height="14.91" as="geometry" />
        </mxCell>
        <mxCell id="fJ2e_rolW9SCwPJDsatI-320" value="" style="fontColor=#0066CC;verticalAlign=top;verticalLabelPosition=bottom;labelPosition=center;align=center;html=1;outlineConnect=0;fillColor=#CCCCCC;strokeColor=#6881B3;gradientColor=none;gradientDirection=north;strokeWidth=2;shape=mxgraph.networks.phone_2;rotation=-90;" parent="fJ2e_rolW9SCwPJDsatI-284" vertex="1">
          <mxGeometry x="179.15499999999994" y="191.5700000000002" width="20.66" height="18.16" as="geometry" />
        </mxCell>
        <mxCell id="fJ2e_rolW9SCwPJDsatI-321" value="" style="endArrow=none;html=1;rounded=0;fontSize=12;startSize=8;endSize=8;curved=0;strokeColor=#99004D;strokeWidth=2;" parent="fJ2e_rolW9SCwPJDsatI-284" edge="1">
          <mxGeometry width="50" height="50" relative="1" as="geometry">
            <mxPoint x="198.57999999999984" y="200.60068965517283" as="sourcePoint" />
            <mxPoint x="207.275" y="200.69000000000008" as="targetPoint" />
            <Array as="points" />
          </mxGeometry>
        </mxCell>
        <mxCell id="fJ2e_rolW9SCwPJDsatI-322" value="" style="endArrow=none;html=1;rounded=0;fontSize=12;startSize=8;endSize=8;curved=0;strokeColor=#99004D;strokeWidth=2;entryX=0;entryY=0.5;entryDx=0;entryDy=0;entryPerimeter=0;exitX=1;exitY=0.5;exitDx=0;exitDy=0;exitPerimeter=0;" parent="fJ2e_rolW9SCwPJDsatI-284" edge="1">
          <mxGeometry width="50" height="50" relative="1" as="geometry">
            <mxPoint x="171.03499999999997" y="231.12999999999988" as="sourcePoint" />
            <mxPoint x="177.03499999999997" y="231.12999999999988" as="targetPoint" />
          </mxGeometry>
        </mxCell>
        <mxCell id="fJ2e_rolW9SCwPJDsatI-323" value="" style="endArrow=none;html=1;rounded=0;fontSize=12;startSize=8;endSize=8;curved=0;strokeColor=#99004D;strokeWidth=2;" parent="fJ2e_rolW9SCwPJDsatI-284" edge="1">
          <mxGeometry width="50" height="50" relative="1" as="geometry">
            <mxPoint x="198.61999999999983" y="227.44068965517272" as="sourcePoint" />
            <mxPoint x="207.315" y="227.52999999999997" as="targetPoint" />
            <Array as="points" />
          </mxGeometry>
        </mxCell>
        <mxCell id="fJ2e_rolW9SCwPJDsatI-324" value="" style="endArrow=none;html=1;rounded=0;fontSize=12;startSize=8;endSize=8;curved=0;strokeColor=#99004D;strokeWidth=2;" parent="fJ2e_rolW9SCwPJDsatI-284" edge="1">
          <mxGeometry width="50" height="50" relative="1" as="geometry">
            <mxPoint x="195.99999999999983" y="110.53068965517286" as="sourcePoint" />
            <mxPoint x="206.89499999999998" y="110.5" as="targetPoint" />
            <Array as="points" />
          </mxGeometry>
        </mxCell>
        <mxCell id="fJ2e_rolW9SCwPJDsatI-325" value="" style="verticalLabelPosition=bottom;html=1;verticalAlign=top;align=center;shape=mxgraph.floorplan.wall;fillColor=strokeColor;direction=west;rotation=-90;" parent="1" vertex="1">
          <mxGeometry x="3140.6" y="1674.32" width="73.58" height="10.54" as="geometry" />
        </mxCell>
        <mxCell id="fJ2e_rolW9SCwPJDsatI-326" value="" style="group;direction=west;rotation=90;" parent="1" vertex="1" connectable="0">
          <mxGeometry x="3088.1543283913347" y="1473.8701546408913" width="153.66" height="176.91" as="geometry" />
        </mxCell>
        <mxCell id="fJ2e_rolW9SCwPJDsatI-327" value="" style="verticalLabelPosition=bottom;html=1;verticalAlign=top;align=center;shape=mxgraph.floorplan.wall;fillColor=strokeColor;direction=west;rotation=90;" parent="fJ2e_rolW9SCwPJDsatI-326" vertex="1">
          <mxGeometry x="48" y="81" width="82" height="10" as="geometry" />
        </mxCell>
        <mxCell id="fJ2e_rolW9SCwPJDsatI-328" value="" style="verticalLabelPosition=bottom;html=1;verticalAlign=top;align=center;shape=mxgraph.floorplan.doorRight;aspect=fixed;rotation=90;" parent="fJ2e_rolW9SCwPJDsatI-326" vertex="1">
          <mxGeometry x="51" y="2" width="41.41" height="44" as="geometry" />
        </mxCell>
        <mxCell id="fJ2e_rolW9SCwPJDsatI-329" value="" style="group;direction=west;rotation=90;" parent="fJ2e_rolW9SCwPJDsatI-326" vertex="1" connectable="0">
          <mxGeometry x="1.7000000000000455" y="123" width="142" height="44" as="geometry" />
        </mxCell>
        <mxCell id="fJ2e_rolW9SCwPJDsatI-330" value="" style="verticalLabelPosition=bottom;html=1;verticalAlign=top;align=center;shape=mxgraph.floorplan.wall;fillColor=strokeColor;direction=west;rotation=90;" parent="fJ2e_rolW9SCwPJDsatI-329" vertex="1">
          <mxGeometry x="63" y="64" width="48" height="10" as="geometry" />
        </mxCell>
        <mxCell id="fJ2e_rolW9SCwPJDsatI-331" value="" style="verticalLabelPosition=bottom;html=1;verticalAlign=top;align=center;shape=mxgraph.floorplan.doorRight;aspect=fixed;rotation=90;" parent="fJ2e_rolW9SCwPJDsatI-329" vertex="1">
          <mxGeometry x="50.29" y="3" width="41.41" height="44" as="geometry" />
        </mxCell>
        <mxCell id="fJ2e_rolW9SCwPJDsatI-332" value="" style="endArrow=none;html=1;rounded=0;fontSize=12;startSize=8;endSize=8;curved=0;strokeColor=#99004D;strokeWidth=2;exitX=0.05;exitY=1.069;exitDx=0;exitDy=0;exitPerimeter=0;" parent="fJ2e_rolW9SCwPJDsatI-329" edge="1" source="fJ2e_rolW9SCwPJDsatI-330">
          <mxGeometry width="50" height="50" relative="1" as="geometry">
            <mxPoint x="92.145671608665" y="92.12984535910869" as="sourcePoint" />
            <mxPoint x="93.145671608665" y="310.1298453591087" as="targetPoint" />
          </mxGeometry>
        </mxCell>
        <mxCell id="fJ2e_rolW9SCwPJDsatI-335" value="" style="verticalLabelPosition=bottom;html=1;verticalAlign=top;align=center;shape=mxgraph.floorplan.wall;fillColor=strokeColor;" parent="1" vertex="1">
          <mxGeometry x="3178.1543283913347" y="1506.8701546408913" width="258" height="62" as="geometry" />
        </mxCell>
        <mxCell id="fJ2e_rolW9SCwPJDsatI-336" value="" style="fontColor=#0066CC;verticalAlign=top;verticalLabelPosition=bottom;labelPosition=center;align=center;html=1;outlineConnect=0;fillColor=#CCCCCC;strokeColor=#6881B3;gradientColor=none;gradientDirection=north;strokeWidth=2;shape=mxgraph.networks.router;rotation=90;" parent="1" vertex="1">
          <mxGeometry x="2792.1543283913347" y="1029.8701546408913" width="54" height="18" as="geometry" />
        </mxCell>
        <mxCell id="fJ2e_rolW9SCwPJDsatI-337" value="" style="shape=image;verticalLabelPosition=bottom;labelBackgroundColor=default;verticalAlign=top;aspect=fixed;imageAspect=0;image=https://studbooks.net/imag_/15/208225/image001.jpg;" parent="1" vertex="1">
          <mxGeometry x="604.1558005593038" y="721.0744948508523" width="514" height="356" as="geometry" />
        </mxCell>
        <mxCell id="fJ2e_rolW9SCwPJDsatI-338" value="" style="verticalLabelPosition=bottom;html=1;verticalAlign=top;align=center;shape=mxgraph.floorplan.wall;fillColor=strokeColor;direction=south;" parent="1" vertex="1">
          <mxGeometry x="3340.1543283913347" y="560.8701546408913" width="10" height="62.91" as="geometry" />
        </mxCell>
        <mxCell id="fJ2e_rolW9SCwPJDsatI-339" value="" style="fontColor=#0066CC;verticalAlign=top;verticalLabelPosition=bottom;labelPosition=center;align=center;html=1;outlineConnect=0;fillColor=#CCCCCC;strokeColor=#6881B3;gradientColor=none;gradientDirection=north;strokeWidth=2;shape=mxgraph.networks.pc;" parent="1" vertex="1">
          <mxGeometry x="2974.184328391335" y="641.9601546408913" width="23.43" height="23.5" as="geometry" />
        </mxCell>
        <mxCell id="fJ2e_rolW9SCwPJDsatI-340" value="" style="fontColor=#0066CC;verticalAlign=top;verticalLabelPosition=bottom;labelPosition=center;align=center;html=1;outlineConnect=0;fillColor=#CCCCCC;strokeColor=#6881B3;gradientColor=none;gradientDirection=north;strokeWidth=2;shape=mxgraph.networks.phone_2;" parent="1" vertex="1">
          <mxGeometry x="3005.184328391335" y="644.6301546408913" width="20.66" height="18.16" as="geometry" />
        </mxCell>
        <mxCell id="fJ2e_rolW9SCwPJDsatI-341" value="" style="fontColor=#0066CC;verticalAlign=top;verticalLabelPosition=bottom;labelPosition=center;align=center;html=1;outlineConnect=0;fillColor=#CCCCCC;strokeColor=#6881B3;gradientColor=none;gradientDirection=north;strokeWidth=2;shape=mxgraph.networks.printer;" parent="1" vertex="1">
          <mxGeometry x="2978.6143283913348" y="674.9601546408913" width="21.57" height="14.91" as="geometry" />
        </mxCell>
        <mxCell id="fJ2e_rolW9SCwPJDsatI-342" value="" style="endArrow=none;html=1;rounded=0;fontSize=12;startSize=8;endSize=8;curved=0;strokeColor=#99004D;strokeWidth=2;" parent="1" target="fJ2e_rolW9SCwPJDsatI-340" edge="1">
          <mxGeometry width="50" height="50" relative="1" as="geometry">
            <mxPoint x="3015.184328391335" y="629.8701546408913" as="sourcePoint" />
            <mxPoint x="3015.184328391335" y="643.8701546408913" as="targetPoint" />
          </mxGeometry>
        </mxCell>
        <mxCell id="fJ2e_rolW9SCwPJDsatI-343" value="" style="endArrow=none;html=1;rounded=0;fontSize=12;startSize=8;endSize=8;curved=0;strokeColor=#99004D;strokeWidth=2;exitX=0.109;exitY=0.514;exitDx=0;exitDy=0;exitPerimeter=0;entryX=0.113;entryY=0.094;entryDx=0;entryDy=0;entryPerimeter=0;" parent="1" source="fJ2e_rolW9SCwPJDsatI-159" target="fJ2e_rolW9SCwPJDsatI-159" edge="1">
          <mxGeometry width="50" height="50" relative="1" as="geometry">
            <mxPoint x="3015.975728391335" y="629.9141546408911" as="sourcePoint" />
            <mxPoint x="2965.184328391335" y="629.9601546408913" as="targetPoint" />
          </mxGeometry>
        </mxCell>
        <mxCell id="fJ2e_rolW9SCwPJDsatI-344" value="" style="endArrow=none;html=1;rounded=0;fontSize=12;startSize=8;endSize=8;curved=0;strokeColor=#99004D;strokeWidth=2;entryX=0.5;entryY=0;entryDx=0;entryDy=0;entryPerimeter=0;" parent="1" target="fJ2e_rolW9SCwPJDsatI-341" edge="1">
          <mxGeometry width="50" height="50" relative="1" as="geometry">
            <mxPoint x="2989.2343283913347" y="665.4601546408913" as="sourcePoint" />
            <mxPoint x="2989.2343283913347" y="679.4601546408913" as="targetPoint" />
          </mxGeometry>
        </mxCell>
        <mxCell id="fJ2e_rolW9SCwPJDsatI-345" value="" style="endArrow=none;html=1;rounded=0;fontSize=12;startSize=8;endSize=8;curved=0;strokeColor=#99004D;strokeWidth=2;" parent="1" target="fJ2e_rolW9SCwPJDsatI-339" edge="1">
          <mxGeometry width="50" height="50" relative="1" as="geometry">
            <mxPoint x="2986.1543283913347" y="628.8701546408913" as="sourcePoint" />
            <mxPoint x="2989.074328391335" y="639.2801546408913" as="targetPoint" />
          </mxGeometry>
        </mxCell>
        <mxCell id="fJ2e_rolW9SCwPJDsatI-346" value="" style="endArrow=none;html=1;rounded=0;fontSize=12;startSize=8;endSize=8;curved=0;strokeColor=#99004D;strokeWidth=4;exitX=0.688;exitY=0;exitDx=0;exitDy=0;exitPerimeter=0;" parent="1" edge="1">
          <mxGeometry width="50" height="50" relative="1" as="geometry">
            <mxPoint x="3350.1243283913345" y="655.0538346408914" as="sourcePoint" />
            <mxPoint x="3351.1543283913347" y="1016.8701546408913" as="targetPoint" />
          </mxGeometry>
        </mxCell>
        <mxCell id="fJ2e_rolW9SCwPJDsatI-347" value="" style="endArrow=none;html=1;rounded=0;fontSize=12;startSize=8;endSize=8;curved=0;strokeColor=#99004D;strokeWidth=2;exitX=0.104;exitY=0.101;exitDx=0;exitDy=0;exitPerimeter=0;entryX=0.119;entryY=0.098;entryDx=0;entryDy=0;entryPerimeter=0;" parent="1" source="fJ2e_rolW9SCwPJDsatI-159" target="fJ2e_rolW9SCwPJDsatI-244" edge="1">
          <mxGeometry width="50" height="50" relative="1" as="geometry">
            <mxPoint x="3045.1543283913347" y="656.8701546408913" as="sourcePoint" />
            <mxPoint x="3028.1543283913347" y="728.8701546408913" as="targetPoint" />
          </mxGeometry>
        </mxCell>
        <mxCell id="fJ2e_rolW9SCwPJDsatI-348" value="" style="fontColor=#0066CC;verticalAlign=top;verticalLabelPosition=bottom;labelPosition=center;align=center;html=1;outlineConnect=0;fillColor=#CCCCCC;strokeColor=#6881B3;gradientColor=none;gradientDirection=north;strokeWidth=2;shape=mxgraph.networks.pc;" parent="1" vertex="1">
          <mxGeometry x="2974.184328391335" y="836.9601546408913" width="23.43" height="23.5" as="geometry" />
        </mxCell>
        <mxCell id="fJ2e_rolW9SCwPJDsatI-349" value="" style="fontColor=#0066CC;verticalAlign=top;verticalLabelPosition=bottom;labelPosition=center;align=center;html=1;outlineConnect=0;fillColor=#CCCCCC;strokeColor=#6881B3;gradientColor=none;gradientDirection=north;strokeWidth=2;shape=mxgraph.networks.phone_2;" parent="1" vertex="1">
          <mxGeometry x="3005.184328391335" y="839.6301546408913" width="20.66" height="18.16" as="geometry" />
        </mxCell>
        <mxCell id="fJ2e_rolW9SCwPJDsatI-350" value="" style="fontColor=#0066CC;verticalAlign=top;verticalLabelPosition=bottom;labelPosition=center;align=center;html=1;outlineConnect=0;fillColor=#CCCCCC;strokeColor=#6881B3;gradientColor=none;gradientDirection=north;strokeWidth=2;shape=mxgraph.networks.printer;" parent="1" vertex="1">
          <mxGeometry x="2978.6143283913348" y="869.9601546408913" width="21.57" height="14.91" as="geometry" />
        </mxCell>
        <mxCell id="fJ2e_rolW9SCwPJDsatI-351" value="" style="endArrow=none;html=1;rounded=0;fontSize=12;startSize=8;endSize=8;curved=0;strokeColor=#99004D;strokeWidth=2;" parent="1" target="fJ2e_rolW9SCwPJDsatI-349" edge="1">
          <mxGeometry width="50" height="50" relative="1" as="geometry">
            <mxPoint x="3015.184328391335" y="824.8701546408913" as="sourcePoint" />
            <mxPoint x="3015.184328391335" y="838.8701546408913" as="targetPoint" />
          </mxGeometry>
        </mxCell>
        <mxCell id="fJ2e_rolW9SCwPJDsatI-352" value="" style="endArrow=none;html=1;rounded=0;fontSize=12;startSize=8;endSize=8;curved=0;strokeColor=#99004D;strokeWidth=2;exitX=0.109;exitY=0.514;exitDx=0;exitDy=0;exitPerimeter=0;entryX=0.113;entryY=0.094;entryDx=0;entryDy=0;entryPerimeter=0;" parent="1" edge="1">
          <mxGeometry width="50" height="50" relative="1" as="geometry">
            <mxPoint x="2986.1543283913347" y="824.8701546408913" as="sourcePoint" />
            <mxPoint x="3029.1543283913347" y="824.8701546408913" as="targetPoint" />
          </mxGeometry>
        </mxCell>
        <mxCell id="fJ2e_rolW9SCwPJDsatI-353" value="" style="endArrow=none;html=1;rounded=0;fontSize=12;startSize=8;endSize=8;curved=0;strokeColor=#99004D;strokeWidth=2;entryX=0.5;entryY=0;entryDx=0;entryDy=0;entryPerimeter=0;" parent="1" target="fJ2e_rolW9SCwPJDsatI-350" edge="1">
          <mxGeometry width="50" height="50" relative="1" as="geometry">
            <mxPoint x="2989.2343283913347" y="860.4601546408913" as="sourcePoint" />
            <mxPoint x="2989.2343283913347" y="874.4601546408913" as="targetPoint" />
          </mxGeometry>
        </mxCell>
        <mxCell id="fJ2e_rolW9SCwPJDsatI-354" value="" style="endArrow=none;html=1;rounded=0;fontSize=12;startSize=8;endSize=8;curved=0;strokeColor=#99004D;strokeWidth=2;" parent="1" target="fJ2e_rolW9SCwPJDsatI-348" edge="1">
          <mxGeometry width="50" height="50" relative="1" as="geometry">
            <mxPoint x="2986.1543283913347" y="824.8701546408913" as="sourcePoint" />
            <mxPoint x="2989.074328391335" y="834.2801546408913" as="targetPoint" />
          </mxGeometry>
        </mxCell>
        <mxCell id="fJ2e_rolW9SCwPJDsatI-355" value="" style="fontColor=#0066CC;verticalAlign=top;verticalLabelPosition=bottom;labelPosition=center;align=center;html=1;outlineConnect=0;fillColor=#CCCCCC;strokeColor=#6881B3;gradientColor=none;gradientDirection=north;strokeWidth=2;shape=mxgraph.networks.pc;" parent="1" vertex="1">
          <mxGeometry x="2974.184328391335" y="937.9601546408913" width="23.43" height="23.5" as="geometry" />
        </mxCell>
        <mxCell id="fJ2e_rolW9SCwPJDsatI-356" value="" style="fontColor=#0066CC;verticalAlign=top;verticalLabelPosition=bottom;labelPosition=center;align=center;html=1;outlineConnect=0;fillColor=#CCCCCC;strokeColor=#6881B3;gradientColor=none;gradientDirection=north;strokeWidth=2;shape=mxgraph.networks.phone_2;" parent="1" vertex="1">
          <mxGeometry x="3005.184328391335" y="940.6301546408913" width="20.66" height="18.16" as="geometry" />
        </mxCell>
        <mxCell id="fJ2e_rolW9SCwPJDsatI-357" value="" style="fontColor=#0066CC;verticalAlign=top;verticalLabelPosition=bottom;labelPosition=center;align=center;html=1;outlineConnect=0;fillColor=#CCCCCC;strokeColor=#6881B3;gradientColor=none;gradientDirection=north;strokeWidth=2;shape=mxgraph.networks.printer;" parent="1" vertex="1">
          <mxGeometry x="2978.6143283913348" y="970.9601546408913" width="21.57" height="14.91" as="geometry" />
        </mxCell>
        <mxCell id="fJ2e_rolW9SCwPJDsatI-358" value="" style="endArrow=none;html=1;rounded=0;fontSize=12;startSize=8;endSize=8;curved=0;strokeColor=#99004D;strokeWidth=2;" parent="1" target="fJ2e_rolW9SCwPJDsatI-356" edge="1">
          <mxGeometry width="50" height="50" relative="1" as="geometry">
            <mxPoint x="3015.184328391335" y="925.8701546408913" as="sourcePoint" />
            <mxPoint x="3015.184328391335" y="939.8701546408913" as="targetPoint" />
          </mxGeometry>
        </mxCell>
        <mxCell id="fJ2e_rolW9SCwPJDsatI-359" value="" style="endArrow=none;html=1;rounded=0;fontSize=12;startSize=8;endSize=8;curved=0;strokeColor=#99004D;strokeWidth=2;exitX=0.109;exitY=0.514;exitDx=0;exitDy=0;exitPerimeter=0;entryX=0.113;entryY=0.094;entryDx=0;entryDy=0;entryPerimeter=0;" parent="1" edge="1">
          <mxGeometry width="50" height="50" relative="1" as="geometry">
            <mxPoint x="2986.1543283913347" y="925.8701546408913" as="sourcePoint" />
            <mxPoint x="3029.1543283913347" y="925.8701546408913" as="targetPoint" />
          </mxGeometry>
        </mxCell>
        <mxCell id="fJ2e_rolW9SCwPJDsatI-360" value="" style="endArrow=none;html=1;rounded=0;fontSize=12;startSize=8;endSize=8;curved=0;strokeColor=#99004D;strokeWidth=2;entryX=0.5;entryY=0;entryDx=0;entryDy=0;entryPerimeter=0;" parent="1" target="fJ2e_rolW9SCwPJDsatI-357" edge="1">
          <mxGeometry width="50" height="50" relative="1" as="geometry">
            <mxPoint x="2989.2343283913347" y="961.4601546408913" as="sourcePoint" />
            <mxPoint x="2989.2343283913347" y="975.4601546408913" as="targetPoint" />
          </mxGeometry>
        </mxCell>
        <mxCell id="fJ2e_rolW9SCwPJDsatI-361" value="" style="endArrow=none;html=1;rounded=0;fontSize=12;startSize=8;endSize=8;curved=0;strokeColor=#99004D;strokeWidth=2;" parent="1" target="fJ2e_rolW9SCwPJDsatI-355" edge="1">
          <mxGeometry width="50" height="50" relative="1" as="geometry">
            <mxPoint x="2986.1543283913347" y="925.8701546408913" as="sourcePoint" />
            <mxPoint x="2989.074328391335" y="935.2801546408913" as="targetPoint" />
          </mxGeometry>
        </mxCell>
        <mxCell id="fJ2e_rolW9SCwPJDsatI-362" value="" style="endArrow=none;html=1;rounded=0;fontSize=12;startSize=8;endSize=8;curved=0;strokeColor=#99004D;strokeWidth=4;entryX=0.996;entryY=0.99;entryDx=0;entryDy=0;entryPerimeter=0;exitX=0.073;exitY=0.11;exitDx=0;exitDy=0;exitPerimeter=0;" parent="1" source="fJ2e_rolW9SCwPJDsatI-218" target="fJ2e_rolW9SCwPJDsatI-161" edge="1">
          <mxGeometry width="50" height="50" relative="1" as="geometry">
            <mxPoint x="3352.1543283913347" y="1009.8701546408913" as="sourcePoint" />
            <mxPoint x="3289.184328391335" y="1038.6901546408913" as="targetPoint" />
          </mxGeometry>
        </mxCell>
        <mxCell id="fJ2e_rolW9SCwPJDsatI-363" value="" style="fontColor=#0066CC;verticalAlign=top;verticalLabelPosition=bottom;labelPosition=center;align=center;html=1;outlineConnect=0;fillColor=#CCCCCC;strokeColor=#6881B3;gradientColor=none;gradientDirection=north;strokeWidth=2;shape=mxgraph.networks.security_camera;rotation=-90;flipH=1;" parent="1" vertex="1">
          <mxGeometry x="3025.844328391335" y="476.1201546408913" width="65.54" height="44.5" as="geometry" />
        </mxCell>
        <mxCell id="fJ2e_rolW9SCwPJDsatI-364" value="" style="fontColor=#0066CC;verticalAlign=top;verticalLabelPosition=bottom;labelPosition=center;align=center;html=1;outlineConnect=0;fillColor=#CCCCCC;strokeColor=#6881B3;gradientColor=none;gradientDirection=north;strokeWidth=2;shape=mxgraph.networks.security_camera;rotation=-90;flipH=0;flipV=1;direction=north;" parent="1" vertex="1">
          <mxGeometry x="2817.6543283913347" y="524.8701546408913" width="44.5" height="65.54" as="geometry" />
        </mxCell>
        <mxCell id="fJ2e_rolW9SCwPJDsatI-365" value="" style="fontColor=#0066CC;verticalAlign=top;verticalLabelPosition=bottom;labelPosition=center;align=center;html=1;outlineConnect=0;fillColor=#CCCCCC;strokeColor=#6881B3;gradientColor=none;gradientDirection=north;strokeWidth=2;shape=mxgraph.networks.router;rotation=90;" parent="1" vertex="1">
          <mxGeometry x="2794.1543283913347" y="963.9501546408914" width="54" height="18" as="geometry" />
        </mxCell>
        <mxCell id="fJ2e_rolW9SCwPJDsatI-366" value="" style="fontColor=#0066CC;verticalAlign=top;verticalLabelPosition=bottom;labelPosition=center;align=center;html=1;outlineConnect=0;fillColor=#CCCCCC;strokeColor=#6881B3;gradientColor=none;gradientDirection=north;strokeWidth=2;shape=mxgraph.networks.security_camera;rotation=-90;flipH=0;flipV=0;direction=west;" parent="1" vertex="1">
          <mxGeometry x="3236.1543283913347" y="476.1201546408913" width="65.54" height="44.5" as="geometry" />
        </mxCell>
        <mxCell id="fJ2e_rolW9SCwPJDsatI-367" value="" style="fontColor=#0066CC;verticalAlign=top;verticalLabelPosition=bottom;labelPosition=center;align=center;html=1;outlineConnect=0;fillColor=#CCCCCC;strokeColor=#6881B3;gradientColor=none;gradientDirection=north;strokeWidth=2;shape=mxgraph.networks.security_camera;rotation=-90;flipH=0;" parent="1" vertex="1">
          <mxGeometry x="3010.1543283913347" y="1120.3701546408913" width="65.54" height="44.5" as="geometry" />
        </mxCell>
        <mxCell id="fJ2e_rolW9SCwPJDsatI-368" value="" style="fontColor=#0066CC;verticalAlign=top;verticalLabelPosition=bottom;labelPosition=center;align=center;html=1;outlineConnect=0;fillColor=#CCCCCC;strokeColor=#6881B3;gradientColor=none;gradientDirection=north;strokeWidth=2;shape=mxgraph.networks.security_camera;rotation=-90;flipH=1;flipV=0;direction=west;" parent="1" vertex="1">
          <mxGeometry x="3262.1543283913347" y="1121.3701546408913" width="65.54" height="44.5" as="geometry" />
        </mxCell>
        <mxCell id="fJ2e_rolW9SCwPJDsatI-369" value="" style="fontColor=#0066CC;verticalAlign=top;verticalLabelPosition=bottom;labelPosition=center;align=center;html=1;outlineConnect=0;fillColor=#CCCCCC;strokeColor=#6881B3;gradientColor=none;gradientDirection=north;strokeWidth=2;shape=mxgraph.networks.security_camera;rotation=-90;flipH=1;flipV=0;direction=west;" parent="1" vertex="1">
          <mxGeometry x="2879.1143283913348" y="1126.8701546408913" width="51.54" height="44.5" as="geometry" />
        </mxCell>
        <mxCell id="fJ2e_rolW9SCwPJDsatI-370" value="" style="fontColor=#0066CC;verticalAlign=top;verticalLabelPosition=bottom;labelPosition=center;align=center;html=1;outlineConnect=0;fillColor=#CCCCCC;strokeColor=#6881B3;gradientColor=none;gradientDirection=north;strokeWidth=2;shape=mxgraph.networks.security_camera;rotation=-90;flipH=1;flipV=0;direction=west;" parent="1" vertex="1">
          <mxGeometry x="3457.304328391335" y="1028.8701546408913" width="65.54" height="44.5" as="geometry" />
        </mxCell>
        <mxCell id="fJ2e_rolW9SCwPJDsatI-371" value="" style="fontColor=#0066CC;verticalAlign=top;verticalLabelPosition=bottom;labelPosition=center;align=center;html=1;outlineConnect=0;fillColor=#CCCCCC;strokeColor=#6881B3;gradientColor=none;gradientDirection=north;strokeWidth=2;shape=mxgraph.networks.security_camera;rotation=-90;flipH=0;flipV=0;direction=south;" parent="1" vertex="1">
          <mxGeometry x="2810.6543283913347" y="626.8701546408913" width="44.5" height="51.54" as="geometry" />
        </mxCell>
        <mxCell id="fJ2e_rolW9SCwPJDsatI-372" value="" style="fontColor=#0066CC;verticalAlign=top;verticalLabelPosition=bottom;labelPosition=center;align=center;html=1;outlineConnect=0;fillColor=#CCCCCC;strokeColor=#6881B3;gradientColor=none;gradientDirection=north;strokeWidth=2;shape=mxgraph.networks.security_camera;rotation=-90;flipH=0;flipV=1;direction=south;" parent="1" vertex="1">
          <mxGeometry x="3467.824328391335" y="563.8701546408913" width="44.5" height="65.54" as="geometry" />
        </mxCell>
        <mxCell id="fJ2e_rolW9SCwPJDsatI-373" value="" style="endArrow=none;html=1;rounded=0;fontSize=12;startSize=8;endSize=8;curved=0;strokeColor=#99004D;strokeWidth=4;exitX=0.083;exitY=0.086;exitDx=0;exitDy=0;exitPerimeter=0;entryX=0.769;entryY=0;entryDx=0;entryDy=0;entryPerimeter=0;" parent="1" source="fJ2e_rolW9SCwPJDsatI-172" target="fJ2e_rolW9SCwPJDsatI-144" edge="1">
          <mxGeometry width="50" height="50" relative="1" as="geometry">
            <mxPoint x="3524.1543283913347" y="570.8701546408913" as="sourcePoint" />
            <mxPoint x="3524.1543283913347" y="595.8701546408913" as="targetPoint" />
          </mxGeometry>
        </mxCell>
        <mxCell id="fJ2e_rolW9SCwPJDsatI-374" value="" style="endArrow=none;html=1;rounded=0;fontSize=12;startSize=8;endSize=8;curved=0;strokeColor=#99004D;strokeWidth=4;exitX=0.088;exitY=0.101;exitDx=0;exitDy=0;exitPerimeter=0;entryX=0.167;entryY=1.004;entryDx=0;entryDy=0;entryPerimeter=0;" parent="1" edge="1">
          <mxGeometry width="50" height="50" relative="1" as="geometry">
            <mxPoint x="3523.5023283913347" y="570.8601546408913" as="sourcePoint" />
            <mxPoint x="3340.1143283913348" y="572.3761246408912" as="targetPoint" />
          </mxGeometry>
        </mxCell>
        <mxCell id="fJ2e_rolW9SCwPJDsatI-375" value="" style="endArrow=none;html=1;rounded=0;fontSize=12;startSize=8;endSize=8;curved=0;strokeColor=#99004D;strokeWidth=4;" parent="1" edge="1">
          <mxGeometry width="50" height="50" relative="1" as="geometry">
            <mxPoint x="3340.1543283913347" y="464.8701546408913" as="sourcePoint" />
            <mxPoint x="3341.1543283913347" y="571.6401546408913" as="targetPoint" />
          </mxGeometry>
        </mxCell>
        <mxCell id="fJ2e_rolW9SCwPJDsatI-376" value="" style="endArrow=none;html=1;rounded=0;fontSize=12;startSize=8;endSize=8;curved=0;strokeColor=#99004D;strokeWidth=4;exitX=0.088;exitY=0.101;exitDx=0;exitDy=0;exitPerimeter=0;" parent="1" edge="1">
          <mxGeometry width="50" height="50" relative="1" as="geometry">
            <mxPoint x="3340.8523283913346" y="463.8701546408913" as="sourcePoint" />
            <mxPoint x="2806.1543283913347" y="464.8701546408913" as="targetPoint" />
          </mxGeometry>
        </mxCell>
        <mxCell id="fJ2e_rolW9SCwPJDsatI-377" value="" style="endArrow=none;html=1;rounded=0;fontSize=12;startSize=8;endSize=8;curved=0;strokeColor=#99004D;strokeWidth=4;entryX=0.97;entryY=0.847;entryDx=0;entryDy=0;entryPerimeter=0;" parent="1" edge="1">
          <mxGeometry width="50" height="50" relative="1" as="geometry">
            <mxPoint x="2806.6943283913347" y="465.8701546408913" as="sourcePoint" />
            <mxPoint x="2806.151828391335" y="1179.1751546408914" as="targetPoint" />
          </mxGeometry>
        </mxCell>
        <mxCell id="fJ2e_rolW9SCwPJDsatI-378" value="" style="endArrow=none;html=1;rounded=0;fontSize=12;startSize=8;endSize=8;curved=0;strokeColor=#99004D;strokeWidth=4;entryX=0.756;entryY=0.068;entryDx=0;entryDy=0;entryPerimeter=0;exitX=-0.022;exitY=0.905;exitDx=0;exitDy=0;exitPerimeter=0;" parent="1" source="fJ2e_rolW9SCwPJDsatI-146" edge="1">
          <mxGeometry width="50" height="50" relative="1" as="geometry">
            <mxPoint x="3351.1543283913347" y="1178.8701546408913" as="sourcePoint" />
            <mxPoint x="2804.1543283913347" y="1175.8701546408913" as="targetPoint" />
          </mxGeometry>
        </mxCell>
        <mxCell id="fJ2e_rolW9SCwPJDsatI-379" value="" style="endArrow=none;html=1;rounded=0;fontSize=12;startSize=8;endSize=8;curved=0;strokeColor=#99004D;strokeWidth=4;entryX=0.969;entryY=0.987;entryDx=0;entryDy=0;entryPerimeter=0;exitX=0.913;exitY=0.055;exitDx=0;exitDy=0;exitPerimeter=0;" parent="1" source="fJ2e_rolW9SCwPJDsatI-258" target="fJ2e_rolW9SCwPJDsatI-265" edge="1">
          <mxGeometry width="50" height="50" relative="1" as="geometry">
            <mxPoint x="3520.9623283913347" y="1181.8401546408913" as="sourcePoint" />
            <mxPoint x="3088.1543283913347" y="1176.8701546408913" as="targetPoint" />
          </mxGeometry>
        </mxCell>
        <mxCell id="fJ2e_rolW9SCwPJDsatI-380" value="" style="endArrow=none;html=1;rounded=0;fontSize=12;startSize=8;endSize=8;curved=0;strokeColor=#99004D;strokeWidth=4;" parent="1" edge="1">
          <mxGeometry width="50" height="50" relative="1" as="geometry">
            <mxPoint x="3523.1543283913347" y="1081.8701546408913" as="sourcePoint" />
            <mxPoint x="3524.1543283913347" y="1178.8701546408913" as="targetPoint" />
          </mxGeometry>
        </mxCell>
        <mxCell id="fJ2e_rolW9SCwPJDsatI-381" value="" style="endArrow=none;html=1;rounded=0;fontSize=12;startSize=8;endSize=8;curved=0;strokeColor=#99004D;strokeWidth=4;exitX=-0.002;exitY=0.056;exitDx=0;exitDy=0;exitPerimeter=0;" parent="1" source="fJ2e_rolW9SCwPJDsatI-258" edge="1">
          <mxGeometry width="50" height="50" relative="1" as="geometry">
            <mxPoint x="3476.6543283913347" y="1100.6201546408913" as="sourcePoint" />
            <mxPoint x="3491.1543283913347" y="1082.8701546408913" as="targetPoint" />
          </mxGeometry>
        </mxCell>
        <mxCell id="fJ2e_rolW9SCwPJDsatI-382" value="" style="endArrow=none;html=1;rounded=0;fontSize=12;startSize=8;endSize=8;curved=0;strokeColor=#99004D;strokeWidth=4;" parent="1" edge="1">
          <mxGeometry width="50" height="50" relative="1" as="geometry">
            <mxPoint x="2939.684328391335" y="1014.8701546408913" as="sourcePoint" />
            <mxPoint x="2939.6543283913347" y="1029.8701546408913" as="targetPoint" />
          </mxGeometry>
        </mxCell>
        <mxCell id="fJ2e_rolW9SCwPJDsatI-383" value="" style="endArrow=none;html=1;rounded=0;fontSize=12;startSize=8;endSize=8;curved=0;strokeColor=#99004D;strokeWidth=4;entryX=0.113;entryY=0.094;entryDx=0;entryDy=0;entryPerimeter=0;" parent="1" edge="1">
          <mxGeometry width="50" height="50" relative="1" as="geometry">
            <mxPoint x="2805.1543283913347" y="1028.8701546408913" as="sourcePoint" />
            <mxPoint x="2939.6543283913347" y="1028.8701546408913" as="targetPoint" />
          </mxGeometry>
        </mxCell>
        <mxCell id="fJ2e_rolW9SCwPJDsatI-384" value="" style="endArrow=none;html=1;rounded=0;fontSize=12;startSize=8;endSize=8;curved=0;strokeColor=#99004D;strokeWidth=2;exitX=0.5;exitY=1;exitDx=0;exitDy=0;exitPerimeter=0;" parent="1" source="fJ2e_rolW9SCwPJDsatI-365" edge="1">
          <mxGeometry width="50" height="50" relative="1" as="geometry">
            <mxPoint x="2874.764328391335" y="943.7101546408913" as="sourcePoint" />
            <mxPoint x="2806.1543283913347" y="972.8701546408913" as="targetPoint" />
          </mxGeometry>
        </mxCell>
        <mxCell id="fJ2e_rolW9SCwPJDsatI-385" value="" style="endArrow=none;html=1;rounded=0;fontSize=12;startSize=8;endSize=8;curved=0;strokeColor=#99004D;strokeWidth=4;" parent="1" edge="1">
          <mxGeometry width="50" height="50" relative="1" as="geometry">
            <mxPoint x="3093.1543283913347" y="1087.8701546408913" as="sourcePoint" />
            <mxPoint x="3093.1543283913347" y="1176.8701546408913" as="targetPoint" />
          </mxGeometry>
        </mxCell>
        <mxCell id="fJ2e_rolW9SCwPJDsatI-386" value="" style="endArrow=none;html=1;rounded=0;fontSize=12;startSize=8;endSize=8;curved=0;strokeColor=#99004D;strokeWidth=4;" parent="1" edge="1">
          <mxGeometry width="50" height="50" relative="1" as="geometry">
            <mxPoint x="3211.1543283913347" y="1088.8701546408913" as="sourcePoint" />
            <mxPoint x="3211.1543283913347" y="1177.8701546408913" as="targetPoint" />
          </mxGeometry>
        </mxCell>
        <mxCell id="fJ2e_rolW9SCwPJDsatI-387" value="" style="endArrow=none;html=1;rounded=0;fontSize=12;startSize=8;endSize=8;curved=0;strokeColor=#99004D;strokeWidth=4;exitX=0.986;exitY=-0.003;exitDx=0;exitDy=0;exitPerimeter=0;" parent="1" source="fJ2e_rolW9SCwPJDsatI-146" edge="1">
          <mxGeometry width="50" height="50" relative="1" as="geometry">
            <mxPoint x="3227.1543283913347" y="1028.8701546408913" as="sourcePoint" />
            <mxPoint x="3093.1543283913347" y="1087.8701546408913" as="targetPoint" />
          </mxGeometry>
        </mxCell>
        <mxCell id="fJ2e_rolW9SCwPJDsatI-389" value="" style="fontColor=#0066CC;verticalAlign=top;verticalLabelPosition=bottom;labelPosition=center;align=center;html=1;outlineConnect=0;fillColor=#CCCCCC;strokeColor=#6881B3;gradientColor=none;gradientDirection=north;strokeWidth=2;shape=mxgraph.networks.server;" parent="1" vertex="1">
          <mxGeometry x="2811.1543283913347" y="2138.870154640891" width="35" height="37" as="geometry" />
        </mxCell>
        <mxCell id="fJ2e_rolW9SCwPJDsatI-390" value="" style="fontColor=#0066CC;verticalAlign=top;verticalLabelPosition=bottom;labelPosition=center;align=center;html=1;outlineConnect=0;fillColor=#CCCCCC;strokeColor=#6881B3;gradientColor=none;gradientDirection=north;strokeWidth=2;shape=mxgraph.networks.server_storage;" parent="1" vertex="1">
          <mxGeometry x="2852.1543283913347" y="2141.870154640891" width="37" height="34" as="geometry" />
        </mxCell>
        <mxCell id="fJ2e_rolW9SCwPJDsatI-391" value="" style="fontColor=#0066CC;verticalAlign=top;verticalLabelPosition=bottom;labelPosition=center;align=center;html=1;outlineConnect=0;fillColor=#CCCCCC;strokeColor=#6881B3;gradientColor=none;gradientDirection=north;strokeWidth=2;shape=mxgraph.networks.security_camera;rotation=-90;flipH=1;direction=south;flipV=0;" parent="1" vertex="1">
          <mxGeometry x="2806.1543283913347" y="2018.1701546408913" width="28" height="24.87" as="geometry" />
        </mxCell>
        <mxCell id="fJ2e_rolW9SCwPJDsatI-392" value="" style="fontColor=#0066CC;verticalAlign=top;verticalLabelPosition=bottom;labelPosition=center;align=center;html=1;outlineConnect=0;fillColor=#CCCCCC;strokeColor=#6881B3;gradientColor=none;gradientDirection=north;strokeWidth=2;shape=mxgraph.networks.security_camera;rotation=90;flipH=1;direction=north;flipV=0;" parent="1" vertex="1">
          <mxGeometry x="2814.08" y="1488" width="21.35" height="23.17" as="geometry" />
        </mxCell>
        <mxCell id="fJ2e_rolW9SCwPJDsatI-393" value="" style="fontColor=#0066CC;verticalAlign=top;verticalLabelPosition=bottom;labelPosition=center;align=center;html=1;outlineConnect=0;fillColor=#CCCCCC;strokeColor=#6881B3;gradientColor=none;gradientDirection=north;strokeWidth=2;shape=mxgraph.networks.pc;" parent="1" vertex="1">
          <mxGeometry x="2821.7443283913344" y="1663.8401546408911" width="51.63" height="31.5" as="geometry" />
        </mxCell>
        <mxCell id="fJ2e_rolW9SCwPJDsatI-394" value="" style="fontColor=#0066CC;verticalAlign=top;verticalLabelPosition=bottom;labelPosition=center;align=center;html=1;outlineConnect=0;fillColor=#CCCCCC;strokeColor=#6881B3;gradientColor=none;gradientDirection=north;strokeWidth=2;shape=mxgraph.networks.pc;" parent="1" vertex="1">
          <mxGeometry x="3202" y="1878" width="24.15" height="23.06" as="geometry" />
        </mxCell>
        <mxCell id="fJ2e_rolW9SCwPJDsatI-395" value="" style="fontColor=#0066CC;verticalAlign=top;verticalLabelPosition=bottom;labelPosition=center;align=center;html=1;outlineConnect=0;fillColor=#CCCCCC;strokeColor=#6881B3;gradientColor=none;gradientDirection=north;strokeWidth=2;shape=mxgraph.networks.phone_2;" parent="1" vertex="1">
          <mxGeometry x="3257.44" y="1879.52" width="21.1" height="19.94" as="geometry" />
        </mxCell>
        <mxCell id="fJ2e_rolW9SCwPJDsatI-396" value="" style="fontColor=#0066CC;verticalAlign=top;verticalLabelPosition=bottom;labelPosition=center;align=center;html=1;outlineConnect=0;fillColor=#CCCCCC;strokeColor=#6881B3;gradientColor=none;gradientDirection=north;strokeWidth=2;shape=mxgraph.networks.printer;" parent="1" vertex="1">
          <mxGeometry x="3236.15" y="1882" width="19.15" height="14.41" as="geometry" />
        </mxCell>
        <mxCell id="fJ2e_rolW9SCwPJDsatI-397" value="" style="endArrow=none;html=1;rounded=0;fontSize=12;startSize=8;endSize=8;curved=0;strokeColor=#99004D;strokeWidth=2;entryX=0;entryY=0.5;entryDx=0;entryDy=0;entryPerimeter=0;exitX=1;exitY=0.5;exitDx=0;exitDy=0;exitPerimeter=0;" parent="1" source="fJ2e_rolW9SCwPJDsatI-394" target="fJ2e_rolW9SCwPJDsatI-396" edge="1">
          <mxGeometry width="50" height="50" relative="1" as="geometry">
            <mxPoint x="3234.2043283913345" y="1878.3701546408915" as="sourcePoint" />
            <mxPoint x="3234.2043283913345" y="1892.3701546408915" as="targetPoint" />
          </mxGeometry>
        </mxCell>
        <mxCell id="fJ2e_rolW9SCwPJDsatI-399" value="" style="fontColor=#0066CC;verticalAlign=top;verticalLabelPosition=bottom;labelPosition=center;align=center;html=1;outlineConnect=0;fillColor=#CCCCCC;strokeColor=#6881B3;gradientColor=none;gradientDirection=north;strokeWidth=2;shape=mxgraph.networks.security_camera;rotation=-90;flipH=0;direction=south;flipV=0;" parent="1" vertex="1">
          <mxGeometry x="2810.6543283913347" y="1609.8701546408913" width="44" height="36" as="geometry" />
        </mxCell>
        <mxCell id="fJ2e_rolW9SCwPJDsatI-400" value="" style="group;direction=east;rotation=0;flipV=0;flipH=0;" parent="1" vertex="1" connectable="0">
          <mxGeometry x="2814.074328391335" y="1803.2501546408917" width="51.66000000000005" height="47.91000000000008" as="geometry" />
        </mxCell>
        <mxCell id="fJ2e_rolW9SCwPJDsatI-401" value="" style="fontColor=#0066CC;verticalAlign=top;verticalLabelPosition=bottom;labelPosition=center;align=center;html=1;outlineConnect=0;fillColor=#CCCCCC;strokeColor=#6881B3;gradientColor=none;gradientDirection=north;strokeWidth=2;shape=mxgraph.networks.pc;rotation=0;" parent="fJ2e_rolW9SCwPJDsatI-400" vertex="1">
          <mxGeometry width="23.43" height="23.5" as="geometry" />
        </mxCell>
        <mxCell id="fJ2e_rolW9SCwPJDsatI-402" value="" style="fontColor=#0066CC;verticalAlign=top;verticalLabelPosition=bottom;labelPosition=center;align=center;html=1;outlineConnect=0;fillColor=#CCCCCC;strokeColor=#6881B3;gradientColor=none;gradientDirection=north;strokeWidth=2;shape=mxgraph.networks.phone_2;rotation=0;" parent="fJ2e_rolW9SCwPJDsatI-400" vertex="1">
          <mxGeometry x="31" y="2" width="20.66" height="18.16" as="geometry" />
        </mxCell>
        <mxCell id="fJ2e_rolW9SCwPJDsatI-403" value="" style="fontColor=#0066CC;verticalAlign=top;verticalLabelPosition=bottom;labelPosition=center;align=center;html=1;outlineConnect=0;fillColor=#CCCCCC;strokeColor=#6881B3;gradientColor=none;gradientDirection=north;strokeWidth=2;shape=mxgraph.networks.printer;rotation=0;" parent="fJ2e_rolW9SCwPJDsatI-400" vertex="1">
          <mxGeometry x="5" y="33" width="21.57" height="14.91" as="geometry" />
        </mxCell>
        <mxCell id="fJ2e_rolW9SCwPJDsatI-404" value="" style="endArrow=none;html=1;rounded=0;fontSize=12;startSize=8;endSize=8;curved=0;strokeColor=#99004D;strokeWidth=2;entryX=0.5;entryY=0;entryDx=0;entryDy=0;entryPerimeter=0;" parent="fJ2e_rolW9SCwPJDsatI-400" target="fJ2e_rolW9SCwPJDsatI-403" edge="1">
          <mxGeometry width="50" height="50" relative="1" as="geometry">
            <mxPoint x="15" y="23" as="sourcePoint" />
            <mxPoint x="15" y="37" as="targetPoint" />
          </mxGeometry>
        </mxCell>
        <mxCell id="fJ2e_rolW9SCwPJDsatI-405" value="" style="group;direction=east;rotation=0;flipV=0;flipH=0;" parent="1" vertex="1" connectable="0">
          <mxGeometry x="2881.494328391335" y="1804.2501546408917" width="51.66000000000005" height="47.91000000000008" as="geometry" />
        </mxCell>
        <mxCell id="fJ2e_rolW9SCwPJDsatI-406" value="" style="fontColor=#0066CC;verticalAlign=top;verticalLabelPosition=bottom;labelPosition=center;align=center;html=1;outlineConnect=0;fillColor=#CCCCCC;strokeColor=#6881B3;gradientColor=none;gradientDirection=north;strokeWidth=2;shape=mxgraph.networks.pc;rotation=0;" parent="fJ2e_rolW9SCwPJDsatI-405" vertex="1">
          <mxGeometry width="23.43" height="23.5" as="geometry" />
        </mxCell>
        <mxCell id="fJ2e_rolW9SCwPJDsatI-407" value="" style="fontColor=#0066CC;verticalAlign=top;verticalLabelPosition=bottom;labelPosition=center;align=center;html=1;outlineConnect=0;fillColor=#CCCCCC;strokeColor=#6881B3;gradientColor=none;gradientDirection=north;strokeWidth=2;shape=mxgraph.networks.phone_2;rotation=0;" parent="fJ2e_rolW9SCwPJDsatI-405" vertex="1">
          <mxGeometry x="31" y="2" width="20.66" height="18.16" as="geometry" />
        </mxCell>
        <mxCell id="fJ2e_rolW9SCwPJDsatI-408" value="" style="fontColor=#0066CC;verticalAlign=top;verticalLabelPosition=bottom;labelPosition=center;align=center;html=1;outlineConnect=0;fillColor=#CCCCCC;strokeColor=#6881B3;gradientColor=none;gradientDirection=north;strokeWidth=2;shape=mxgraph.networks.printer;rotation=0;" parent="fJ2e_rolW9SCwPJDsatI-405" vertex="1">
          <mxGeometry x="5" y="33" width="21.57" height="14.91" as="geometry" />
        </mxCell>
        <mxCell id="fJ2e_rolW9SCwPJDsatI-409" value="" style="endArrow=none;html=1;rounded=0;fontSize=12;startSize=8;endSize=8;curved=0;strokeColor=#99004D;strokeWidth=2;entryX=0.5;entryY=0;entryDx=0;entryDy=0;entryPerimeter=0;" parent="fJ2e_rolW9SCwPJDsatI-405" target="fJ2e_rolW9SCwPJDsatI-408" edge="1">
          <mxGeometry width="50" height="50" relative="1" as="geometry">
            <mxPoint x="15" y="23" as="sourcePoint" />
            <mxPoint x="15" y="37" as="targetPoint" />
          </mxGeometry>
        </mxCell>
        <mxCell id="fJ2e_rolW9SCwPJDsatI-410" value="" style="group;direction=east;rotation=0;flipV=0;flipH=0;" parent="1" vertex="1" connectable="0">
          <mxGeometry x="2814.6543283913347" y="1885.8701546408918" width="51.66000000000005" height="47.91000000000008" as="geometry" />
        </mxCell>
        <mxCell id="fJ2e_rolW9SCwPJDsatI-411" value="" style="group;rotation=-90;" parent="fJ2e_rolW9SCwPJDsatI-410" vertex="1" connectable="0">
          <mxGeometry x="3" y="-1" width="47.135000000000005" height="51.375" as="geometry" />
        </mxCell>
        <mxCell id="fJ2e_rolW9SCwPJDsatI-412" value="" style="fontColor=#0066CC;verticalAlign=top;verticalLabelPosition=bottom;labelPosition=center;align=center;html=1;outlineConnect=0;fillColor=#CCCCCC;strokeColor=#6881B3;gradientColor=none;gradientDirection=north;strokeWidth=2;shape=mxgraph.networks.pc;rotation=0;" parent="fJ2e_rolW9SCwPJDsatI-411" vertex="1">
          <mxGeometry x="-2" y="2" width="23.43" height="23.5" as="geometry" />
        </mxCell>
        <mxCell id="fJ2e_rolW9SCwPJDsatI-413" value="" style="fontColor=#0066CC;verticalAlign=top;verticalLabelPosition=bottom;labelPosition=center;align=center;html=1;outlineConnect=0;fillColor=#CCCCCC;strokeColor=#6881B3;gradientColor=none;gradientDirection=north;strokeWidth=2;shape=mxgraph.networks.printer;rotation=0;" parent="fJ2e_rolW9SCwPJDsatI-411" vertex="1">
          <mxGeometry x="3" y="34" width="21.57" height="14.91" as="geometry" />
        </mxCell>
        <mxCell id="fJ2e_rolW9SCwPJDsatI-414" value="" style="endArrow=none;html=1;rounded=0;fontSize=12;startSize=8;endSize=8;curved=0;strokeColor=#99004D;strokeWidth=2;entryX=0.5;entryY=0;entryDx=0;entryDy=0;entryPerimeter=0;" parent="fJ2e_rolW9SCwPJDsatI-411" target="fJ2e_rolW9SCwPJDsatI-413" edge="1">
          <mxGeometry width="50" height="50" relative="1" as="geometry">
            <mxPoint x="13" y="24" as="sourcePoint" />
            <mxPoint x="13" y="38" as="targetPoint" />
          </mxGeometry>
        </mxCell>
        <mxCell id="fJ2e_rolW9SCwPJDsatI-415" value="" style="fontColor=#0066CC;verticalAlign=top;verticalLabelPosition=bottom;labelPosition=center;align=center;html=1;outlineConnect=0;fillColor=#CCCCCC;strokeColor=#6881B3;gradientColor=none;gradientDirection=north;strokeWidth=2;shape=mxgraph.networks.security_camera;rotation=90;flipH=0;direction=west;flipV=0;" parent="1" vertex="1">
          <mxGeometry x="2903.9043283913347" y="1951.8701546408913" width="36" height="44" as="geometry" />
        </mxCell>
        <mxCell id="fJ2e_rolW9SCwPJDsatI-416" value="" style="fontColor=#0066CC;verticalAlign=top;verticalLabelPosition=bottom;labelPosition=center;align=center;html=1;outlineConnect=0;fillColor=#CCCCCC;strokeColor=#6881B3;gradientColor=none;gradientDirection=north;strokeWidth=2;shape=mxgraph.networks.patch_panel;" parent="1" vertex="1">
          <mxGeometry x="2814.6543283913347" y="2053.870154640891" width="38" height="21" as="geometry" />
        </mxCell>
        <mxCell id="fJ2e_rolW9SCwPJDsatI-418" value="" style="fontColor=#0066CC;verticalAlign=top;verticalLabelPosition=bottom;labelPosition=center;align=center;html=1;outlineConnect=0;fillColor=#CCCCCC;strokeColor=#6881B3;gradientColor=none;gradientDirection=north;strokeWidth=2;shape=mxgraph.networks.video_projector;" parent="1" vertex="1">
          <mxGeometry x="2898.15" y="1712.9399999999998" width="57.85" height="23.13" as="geometry" />
        </mxCell>
        <mxCell id="fJ2e_rolW9SCwPJDsatI-422" value="" style="fontColor=#0066CC;verticalAlign=top;verticalLabelPosition=bottom;labelPosition=center;align=center;html=1;outlineConnect=0;fillColor=#CCCCCC;strokeColor=#6881B3;gradientColor=none;gradientDirection=north;strokeWidth=2;shape=mxgraph.networks.router;rotation=0;" parent="1" vertex="1">
          <mxGeometry x="2815.744328391335" y="1977.7901546408914" width="31.91" height="11" as="geometry" />
        </mxCell>
        <mxCell id="fJ2e_rolW9SCwPJDsatI-425" value="" style="endArrow=none;html=1;rounded=0;fontSize=12;startSize=8;endSize=8;curved=0;strokeColor=#99004D;strokeWidth=2;" parent="1" edge="1">
          <mxGeometry width="50" height="50" relative="1" as="geometry">
            <mxPoint x="2807" y="1494" as="sourcePoint" />
            <mxPoint x="2807" y="1587" as="targetPoint" />
          </mxGeometry>
        </mxCell>
        <mxCell id="fJ2e_rolW9SCwPJDsatI-426" value="" style="fontColor=#0066CC;verticalAlign=top;verticalLabelPosition=bottom;labelPosition=center;align=center;html=1;outlineConnect=0;fillColor=#CCCCCC;strokeColor=#6881B3;gradientColor=none;gradientDirection=north;strokeWidth=2;shape=mxgraph.networks.printer;rotation=-90;" parent="1" vertex="1">
          <mxGeometry x="2852.1500000000005" y="1541.9900000000002" width="21.22" height="24.88" as="geometry" />
        </mxCell>
        <mxCell id="fJ2e_rolW9SCwPJDsatI-427" value="" style="fontColor=#0066CC;verticalAlign=top;verticalLabelPosition=bottom;labelPosition=center;align=center;html=1;outlineConnect=0;fillColor=#CCCCCC;strokeColor=#6881B3;gradientColor=none;gradientDirection=north;strokeWidth=2;shape=mxgraph.networks.pc;rotation=-90;" parent="1" vertex="1">
          <mxGeometry x="2814.0700000000006" y="1541.9899999999998" width="25.89" height="30.17" as="geometry" />
        </mxCell>
        <mxCell id="fJ2e_rolW9SCwPJDsatI-428" value="" style="fontColor=#0066CC;verticalAlign=top;verticalLabelPosition=bottom;labelPosition=center;align=center;html=1;outlineConnect=0;fillColor=#CCCCCC;strokeColor=#6881B3;gradientColor=none;gradientDirection=north;strokeWidth=2;shape=mxgraph.networks.phone_2;rotation=-90;direction=west;" parent="1" vertex="1">
          <mxGeometry x="2815.7400000000002" y="1511.17" width="20.88" height="25.75" as="geometry" />
        </mxCell>
        <mxCell id="fJ2e_rolW9SCwPJDsatI-429" value="" style="endArrow=none;html=1;rounded=0;fontSize=12;startSize=8;endSize=8;curved=0;strokeColor=#99004D;strokeWidth=2;" parent="1" source="fJ2e_rolW9SCwPJDsatI-426" edge="1">
          <mxGeometry width="50" height="50" relative="1" as="geometry">
            <mxPoint x="2821.854328391335" y="1520.2801546408914" as="sourcePoint" />
            <mxPoint x="2842" y="1555" as="targetPoint" />
          </mxGeometry>
        </mxCell>
        <mxCell id="fJ2e_rolW9SCwPJDsatI-431" value="" style="endArrow=none;html=1;rounded=0;fontSize=12;startSize=8;endSize=8;curved=0;strokeColor=#99004D;strokeWidth=2;entryX=0.5;entryY=1;entryDx=0;entryDy=0;entryPerimeter=0;" parent="1" edge="1">
          <mxGeometry width="50" height="50" relative="1" as="geometry">
            <mxPoint x="2813.194328391335" y="1521.0001546408914" as="sourcePoint" />
            <mxPoint x="2807.1050000000005" y="1521.115" as="targetPoint" />
          </mxGeometry>
        </mxCell>
        <mxCell id="fJ2e_rolW9SCwPJDsatI-432" value="" style="endArrow=none;html=1;rounded=0;fontSize=12;startSize=8;endSize=8;curved=0;strokeColor=#99004D;strokeWidth=2;exitX=0.015;exitY=0.015;exitDx=0;exitDy=0;exitPerimeter=0;" parent="1" source="fJ2e_rolW9SCwPJDsatI-264" edge="1">
          <mxGeometry width="50" height="50" relative="1" as="geometry">
            <mxPoint x="2807.1543283913347" y="1591.8701546408913" as="sourcePoint" />
            <mxPoint x="2807.1543283913347" y="2063.870154640891" as="targetPoint" />
          </mxGeometry>
        </mxCell>
        <mxCell id="fJ2e_rolW9SCwPJDsatI-433" value="" style="endArrow=none;html=1;rounded=0;fontSize=12;startSize=8;endSize=8;curved=0;strokeColor=#99004D;strokeWidth=2;" parent="1" edge="1">
          <mxGeometry width="50" height="50" relative="1" as="geometry">
            <mxPoint x="2806.1543283913347" y="1639.8701546408913" as="sourcePoint" />
            <mxPoint x="2814.1543283913347" y="1639.8701546408913" as="targetPoint" />
          </mxGeometry>
        </mxCell>
        <mxCell id="fJ2e_rolW9SCwPJDsatI-434" value="" style="endArrow=none;html=1;rounded=0;fontSize=12;startSize=8;endSize=8;curved=0;strokeColor=#99004D;strokeWidth=2;entryX=0.5;entryY=1;entryDx=0;entryDy=0;entryPerimeter=0;exitX=0.049;exitY=0.987;exitDx=0;exitDy=0;exitPerimeter=0;" parent="1" source="fJ2e_rolW9SCwPJDsatI-257" target="fJ2e_rolW9SCwPJDsatI-416" edge="1">
          <mxGeometry width="50" height="50" relative="1" as="geometry">
            <mxPoint x="3106.1543283913347" y="1974.8701546408913" as="sourcePoint" />
            <mxPoint x="3106.1543283913347" y="2083.870154640891" as="targetPoint" />
            <Array as="points" />
          </mxGeometry>
        </mxCell>
        <mxCell id="fJ2e_rolW9SCwPJDsatI-435" value="" style="endArrow=none;html=1;rounded=0;fontSize=12;startSize=8;endSize=8;curved=0;strokeColor=#99004D;strokeWidth=2;entryX=0.016;entryY=0.819;entryDx=0;entryDy=0;entryPerimeter=0;" parent="1" source="fJ2e_rolW9SCwPJDsatI-416" target="fJ2e_rolW9SCwPJDsatI-257" edge="1">
          <mxGeometry width="50" height="50" relative="1" as="geometry">
            <mxPoint x="2854.1543283913347" y="2108.870154640891" as="sourcePoint" />
            <mxPoint x="2854.1543283913347" y="2084.870154640891" as="targetPoint" />
          </mxGeometry>
        </mxCell>
        <mxCell id="fJ2e_rolW9SCwPJDsatI-436" value="" style="endArrow=none;html=1;rounded=0;fontSize=12;startSize=8;endSize=8;curved=0;strokeColor=#99004D;strokeWidth=2;entryX=0.012;entryY=0.854;entryDx=0;entryDy=0;entryPerimeter=0;exitX=0.104;exitY=0.986;exitDx=0;exitDy=0;exitPerimeter=0;" parent="1" edge="1">
          <mxGeometry width="50" height="50" relative="1" as="geometry">
            <mxPoint x="2869.970328391335" y="2185.8741546408914" as="sourcePoint" />
            <mxPoint x="2828.1543283913347" y="2186.080154640891" as="targetPoint" />
          </mxGeometry>
        </mxCell>
        <mxCell id="fJ2e_rolW9SCwPJDsatI-437" value="" style="endArrow=none;html=1;rounded=0;fontSize=12;startSize=8;endSize=8;curved=0;strokeColor=#99004D;strokeWidth=2;entryX=0.112;entryY=0.985;entryDx=0;entryDy=0;entryPerimeter=0;" parent="1" source="fJ2e_rolW9SCwPJDsatI-390" target="fJ2e_rolW9SCwPJDsatI-257" edge="1">
          <mxGeometry width="50" height="50" relative="1" as="geometry">
            <mxPoint x="2873.1543283913347" y="2161.870154640891" as="sourcePoint" />
            <mxPoint x="2816.1543283913347" y="2074.870154640891" as="targetPoint" />
          </mxGeometry>
        </mxCell>
        <mxCell id="fJ2e_rolW9SCwPJDsatI-438" value="" style="endArrow=none;html=1;rounded=0;fontSize=12;startSize=8;endSize=8;curved=0;strokeColor=#99004D;strokeWidth=2;" parent="1" edge="1">
          <mxGeometry width="50" height="50" relative="1" as="geometry">
            <mxPoint x="2930.1543283913347" y="1796.8701546408913" as="sourcePoint" />
            <mxPoint x="2807.1543283913347" y="1795.8701546408913" as="targetPoint" />
            <Array as="points" />
          </mxGeometry>
        </mxCell>
        <mxCell id="fJ2e_rolW9SCwPJDsatI-439" value="" style="endArrow=none;html=1;rounded=0;fontSize=12;startSize=8;endSize=8;curved=0;strokeColor=#99004D;strokeWidth=2;" parent="1" target="fJ2e_rolW9SCwPJDsatI-406" edge="1">
          <mxGeometry width="50" height="50" relative="1" as="geometry">
            <mxPoint x="2893.1543283913347" y="1795.8701546408913" as="sourcePoint" />
            <mxPoint x="2906.1543283913347" y="1775.8701546408913" as="targetPoint" />
          </mxGeometry>
        </mxCell>
        <mxCell id="fJ2e_rolW9SCwPJDsatI-440" value="" style="endArrow=none;html=1;rounded=0;fontSize=12;startSize=8;endSize=8;curved=0;strokeColor=#99004D;strokeWidth=2;" parent="1" edge="1">
          <mxGeometry width="50" height="50" relative="1" as="geometry">
            <mxPoint x="2929.0443283913346" y="1797.0901546408913" as="sourcePoint" />
            <mxPoint x="2929.0443283913346" y="1805.0901546408913" as="targetPoint" />
          </mxGeometry>
        </mxCell>
        <mxCell id="fJ2e_rolW9SCwPJDsatI-441" value="" style="endArrow=none;html=1;rounded=0;fontSize=12;startSize=8;endSize=8;curved=0;strokeColor=#99004D;strokeWidth=2;" parent="1" edge="1">
          <mxGeometry width="50" height="50" relative="1" as="geometry">
            <mxPoint x="2862.1543283913347" y="1797.0901546408913" as="sourcePoint" />
            <mxPoint x="2862.1543283913347" y="1805.0901546408913" as="targetPoint" />
          </mxGeometry>
        </mxCell>
        <mxCell id="fJ2e_rolW9SCwPJDsatI-442" value="" style="endArrow=none;html=1;rounded=0;fontSize=12;startSize=8;endSize=8;curved=0;strokeColor=#99004D;strokeWidth=2;" parent="1" edge="1">
          <mxGeometry width="50" height="50" relative="1" as="geometry">
            <mxPoint x="2830.094328391335" y="1795.2501546408914" as="sourcePoint" />
            <mxPoint x="2830.094328391335" y="1803.2501546408914" as="targetPoint" />
          </mxGeometry>
        </mxCell>
        <mxCell id="fJ2e_rolW9SCwPJDsatI-443" value="" style="fontColor=#0066CC;verticalAlign=top;verticalLabelPosition=bottom;labelPosition=center;align=center;html=1;outlineConnect=0;fillColor=#CCCCCC;strokeColor=#6881B3;gradientColor=none;gradientDirection=north;strokeWidth=2;shape=mxgraph.networks.phone_2;rotation=0;" parent="1" vertex="1">
          <mxGeometry x="2816.4243283913347" y="1863.8701546408918" width="20.66" height="18.16" as="geometry" />
        </mxCell>
        <mxCell id="fJ2e_rolW9SCwPJDsatI-444" value="" style="endArrow=none;html=1;rounded=0;fontSize=12;startSize=8;endSize=8;curved=0;strokeColor=#99004D;strokeWidth=2;entryX=0.013;entryY=0.556;entryDx=0;entryDy=0;entryPerimeter=0;exitX=0;exitY=0.5;exitDx=0;exitDy=0;exitPerimeter=0;" parent="1" source="fJ2e_rolW9SCwPJDsatI-443" target="fJ2e_rolW9SCwPJDsatI-257" edge="1">
          <mxGeometry width="50" height="50" relative="1" as="geometry">
            <mxPoint x="2840.094328391335" y="1805.2501546408914" as="sourcePoint" />
            <mxPoint x="2840.094328391335" y="1813.2501546408914" as="targetPoint" />
          </mxGeometry>
        </mxCell>
        <mxCell id="fJ2e_rolW9SCwPJDsatI-445" value="" style="endArrow=none;html=1;rounded=0;fontSize=12;startSize=8;endSize=8;curved=0;strokeColor=#99004D;strokeWidth=2;entryX=0.014;entryY=0.591;entryDx=0;entryDy=0;entryPerimeter=0;exitX=0;exitY=0.5;exitDx=0;exitDy=0;exitPerimeter=0;" parent="1" edge="1">
          <mxGeometry width="50" height="50" relative="1" as="geometry">
            <mxPoint x="2815.074328391335" y="1894.7001546408912" as="sourcePoint" />
            <mxPoint x="2806.074328391335" y="1894.7001546408912" as="targetPoint" />
          </mxGeometry>
        </mxCell>
        <mxCell id="fJ2e_rolW9SCwPJDsatI-446" value="" style="endArrow=none;html=1;rounded=0;fontSize=12;startSize=8;endSize=8;curved=0;strokeColor=#99004D;strokeWidth=2;entryX=0.014;entryY=0.591;entryDx=0;entryDy=0;entryPerimeter=0;exitX=0;exitY=0.5;exitDx=0;exitDy=0;exitPerimeter=0;" parent="1" edge="1">
          <mxGeometry width="50" height="50" relative="1" as="geometry">
            <mxPoint x="2816.4243283913347" y="1980.7901546408914" as="sourcePoint" />
            <mxPoint x="2807.4243283913347" y="1980.7901546408914" as="targetPoint" />
          </mxGeometry>
        </mxCell>
        <mxCell id="fJ2e_rolW9SCwPJDsatI-447" value="" style="endArrow=none;html=1;rounded=0;fontSize=12;startSize=8;endSize=8;curved=0;strokeColor=#99004D;strokeWidth=2;entryX=0.014;entryY=0.591;entryDx=0;entryDy=0;entryPerimeter=0;exitX=0;exitY=0.5;exitDx=0;exitDy=0;exitPerimeter=0;" parent="1" edge="1">
          <mxGeometry width="50" height="50" relative="1" as="geometry">
            <mxPoint x="2815.744328391335" y="1985.8701546408913" as="sourcePoint" />
            <mxPoint x="2806.744328391335" y="1985.8701546408913" as="targetPoint" />
          </mxGeometry>
        </mxCell>
        <mxCell id="fJ2e_rolW9SCwPJDsatI-448" value="" style="endArrow=none;html=1;rounded=0;fontSize=12;startSize=8;endSize=8;curved=0;strokeColor=#99004D;strokeWidth=2;entryX=0.959;entryY=0.007;entryDx=0;entryDy=0;entryPerimeter=0;exitX=-0.001;exitY=1.04;exitDx=0;exitDy=0;exitPerimeter=0;" parent="1" source="fJ2e_rolW9SCwPJDsatI-275" edge="1">
          <mxGeometry width="50" height="50" relative="1" as="geometry">
            <mxPoint x="3427.1543283913347" y="1906.2001546408912" as="sourcePoint" />
            <mxPoint x="3184.1543283913347" y="1906.2001546408912" as="targetPoint" />
          </mxGeometry>
        </mxCell>
        <mxCell id="fJ2e_rolW9SCwPJDsatI-449" value="" style="endArrow=none;html=1;rounded=0;fontSize=12;startSize=8;endSize=8;curved=0;strokeColor=#99004D;strokeWidth=2;" parent="1" target="fJ2e_rolW9SCwPJDsatI-395" edge="1">
          <mxGeometry width="50" height="50" relative="1" as="geometry">
            <mxPoint x="3268.1543283913347" y="1905.8701546408913" as="sourcePoint" />
            <mxPoint x="3242.1543283913347" y="1901.8701546408913" as="targetPoint" />
          </mxGeometry>
        </mxCell>
        <mxCell id="fJ2e_rolW9SCwPJDsatI-450" value="" style="endArrow=none;html=1;rounded=0;fontSize=12;startSize=8;endSize=8;curved=0;strokeColor=#99004D;strokeWidth=2;" parent="1" edge="1">
          <mxGeometry width="50" height="50" relative="1" as="geometry">
            <mxPoint x="3219.1543283913347" y="1906.0601546408914" as="sourcePoint" />
            <mxPoint x="3219.1543283913347" y="1901.0601546408914" as="targetPoint" />
          </mxGeometry>
        </mxCell>
        <mxCell id="fJ2e_rolW9SCwPJDsatI-451" value="" style="fontColor=#0066CC;verticalAlign=top;verticalLabelPosition=bottom;labelPosition=center;align=center;html=1;outlineConnect=0;fillColor=#CCCCCC;strokeColor=#6881B3;gradientColor=none;gradientDirection=north;strokeWidth=2;shape=mxgraph.networks.pc;" parent="1" vertex="1">
          <mxGeometry x="3280.51" y="1878" width="25.49" height="23.06" as="geometry" />
        </mxCell>
        <mxCell id="fJ2e_rolW9SCwPJDsatI-452" value="" style="fontColor=#0066CC;verticalAlign=top;verticalLabelPosition=bottom;labelPosition=center;align=center;html=1;outlineConnect=0;fillColor=#CCCCCC;strokeColor=#6881B3;gradientColor=none;gradientDirection=north;strokeWidth=2;shape=mxgraph.networks.phone_2;" parent="1" vertex="1">
          <mxGeometry x="3333.804328391335" y="1882.9001546408915" width="20.66" height="18.16" as="geometry" />
        </mxCell>
        <mxCell id="fJ2e_rolW9SCwPJDsatI-453" value="" style="fontColor=#0066CC;verticalAlign=top;verticalLabelPosition=bottom;labelPosition=center;align=center;html=1;outlineConnect=0;fillColor=#CCCCCC;strokeColor=#6881B3;gradientColor=none;gradientDirection=north;strokeWidth=2;shape=mxgraph.networks.printer;" parent="1" vertex="1">
          <mxGeometry x="3308.514328391335" y="1884.6301546408913" width="19" height="11.78" as="geometry" />
        </mxCell>
        <mxCell id="fJ2e_rolW9SCwPJDsatI-454" value="" style="endArrow=none;html=1;rounded=0;fontSize=12;startSize=8;endSize=8;curved=0;strokeColor=#99004D;strokeWidth=2;entryX=0;entryY=0.5;entryDx=0;entryDy=0;entryPerimeter=0;exitX=1;exitY=0.5;exitDx=0;exitDy=0;exitPerimeter=0;" parent="1" source="fJ2e_rolW9SCwPJDsatI-451" target="fJ2e_rolW9SCwPJDsatI-453" edge="1">
          <mxGeometry width="50" height="50" relative="1" as="geometry">
            <mxPoint x="3310.5643283913346" y="1878.3701546408915" as="sourcePoint" />
            <mxPoint x="3310.5643283913346" y="1892.3701546408915" as="targetPoint" />
          </mxGeometry>
        </mxCell>
        <mxCell id="fJ2e_rolW9SCwPJDsatI-455" value="" style="endArrow=none;html=1;rounded=0;fontSize=12;startSize=8;endSize=8;curved=0;strokeColor=#99004D;strokeWidth=2;" parent="1" target="fJ2e_rolW9SCwPJDsatI-452" edge="1">
          <mxGeometry width="50" height="50" relative="1" as="geometry">
            <mxPoint x="3344.514328391335" y="1905.8701546408913" as="sourcePoint" />
            <mxPoint x="3318.514328391335" y="1901.8701546408913" as="targetPoint" />
          </mxGeometry>
        </mxCell>
        <mxCell id="fJ2e_rolW9SCwPJDsatI-456" value="" style="endArrow=none;html=1;rounded=0;fontSize=12;startSize=8;endSize=8;curved=0;strokeColor=#99004D;strokeWidth=2;" parent="1" edge="1">
          <mxGeometry width="50" height="50" relative="1" as="geometry">
            <mxPoint x="3295.514328391335" y="1906.0601546408914" as="sourcePoint" />
            <mxPoint x="3295.514328391335" y="1901.0601546408914" as="targetPoint" />
          </mxGeometry>
        </mxCell>
        <mxCell id="fJ2e_rolW9SCwPJDsatI-457" value="" style="fontColor=#0066CC;verticalAlign=top;verticalLabelPosition=bottom;labelPosition=center;align=center;html=1;outlineConnect=0;fillColor=#CCCCCC;strokeColor=#6881B3;gradientColor=none;gradientDirection=north;strokeWidth=2;shape=mxgraph.networks.printer;rotation=-90;" parent="1" vertex="1">
          <mxGeometry x="3382.1943283913347" y="1882.0301546408916" width="21.57" height="14.91" as="geometry" />
        </mxCell>
        <mxCell id="fJ2e_rolW9SCwPJDsatI-458" value="" style="endArrow=none;html=1;rounded=0;fontSize=12;startSize=8;endSize=8;curved=0;strokeColor=#99004D;strokeWidth=2;entryX=0.5;entryY=1;entryDx=0;entryDy=0;entryPerimeter=0;" parent="1" edge="1">
          <mxGeometry width="50" height="50" relative="1" as="geometry">
            <mxPoint x="2813.1943283913347" y="1494.0001546408912" as="sourcePoint" />
            <mxPoint x="2807.1943283913347" y="1494.0001546408912" as="targetPoint" />
          </mxGeometry>
        </mxCell>
        <mxCell id="fJ2e_rolW9SCwPJDsatI-459" value="" style="endArrow=none;html=1;rounded=0;fontSize=12;startSize=8;endSize=8;curved=0;strokeColor=#99004D;strokeWidth=2;entryX=0.032;entryY=-0.124;entryDx=0;entryDy=0;entryPerimeter=0;exitX=0.902;exitY=1.008;exitDx=0;exitDy=0;exitPerimeter=0;" parent="1" source="fJ2e_rolW9SCwPJDsatI-273" target="fJ2e_rolW9SCwPJDsatI-277" edge="1">
          <mxGeometry width="50" height="50" relative="1" as="geometry">
            <mxPoint x="3133" y="1992" as="sourcePoint" />
            <mxPoint x="2816.744328391335" y="1995.8701546408913" as="targetPoint" />
          </mxGeometry>
        </mxCell>
        <mxCell id="fJ2e_rolW9SCwPJDsatI-461" value="" style="fontColor=#0066CC;verticalAlign=top;verticalLabelPosition=bottom;labelPosition=center;align=center;html=1;outlineConnect=0;fillColor=#CCCCCC;strokeColor=#6881B3;gradientColor=none;gradientDirection=north;strokeWidth=2;shape=mxgraph.networks.pc;rotation=-90;" parent="1" vertex="1">
          <mxGeometry x="3403.764328391335" y="1874.7801546408914" width="23.43" height="23.5" as="geometry" />
        </mxCell>
        <mxCell id="fJ2e_rolW9SCwPJDsatI-290" value="" style="fontColor=#0066CC;verticalAlign=top;verticalLabelPosition=bottom;labelPosition=center;align=center;html=1;outlineConnect=0;fillColor=#CCCCCC;strokeColor=#6881B3;gradientColor=none;gradientDirection=north;strokeWidth=2;shape=mxgraph.networks.printer;" parent="1" vertex="1">
          <mxGeometry x="3196.5893283913347" y="1731.5401546408914" width="22.57" height="17.5" as="geometry" />
        </mxCell>
        <mxCell id="fJ2e_rolW9SCwPJDsatI-303" value="" style="fontColor=#0066CC;verticalAlign=top;verticalLabelPosition=bottom;labelPosition=center;align=center;html=1;outlineConnect=0;fillColor=#CCCCCC;strokeColor=#6881B3;gradientColor=none;gradientDirection=north;strokeWidth=2;shape=mxgraph.networks.router;rotation=90;" parent="1" vertex="1">
          <mxGeometry x="3173.369328391335" y="1819.9001546408913" width="61.57" height="18.5" as="geometry" />
        </mxCell>
        <mxCell id="fJ2e_rolW9SCwPJDsatI-304" value="" style="endArrow=none;html=1;rounded=0;fontSize=12;startSize=8;endSize=8;curved=0;strokeColor=#99004D;strokeWidth=2;entryX=0.5;entryY=1;entryDx=0;entryDy=0;entryPerimeter=0;" parent="1" target="fJ2e_rolW9SCwPJDsatI-303" edge="1">
          <mxGeometry width="50" height="50" relative="1" as="geometry">
            <mxPoint x="3181" y="1829" as="sourcePoint" />
            <mxPoint x="3192.1543283913347" y="1836.7801546408916" as="targetPoint" />
          </mxGeometry>
        </mxCell>
        <mxCell id="h2t665Zjdi5_VcNOuHB4-9" value="" style="endArrow=none;html=1;rounded=0;fontSize=12;startSize=8;endSize=8;curved=0;strokeColor=#99004D;strokeWidth=2;entryX=0.5;entryY=1;entryDx=0;entryDy=0;entryPerimeter=0;" edge="1" parent="1">
          <mxGeometry width="50" height="50" relative="1" as="geometry">
            <mxPoint x="2814.0743283913353" y="1552.0001546408914" as="sourcePoint" />
            <mxPoint x="2807.9850000000006" y="1552.115" as="targetPoint" />
          </mxGeometry>
        </mxCell>
        <mxCell id="h2t665Zjdi5_VcNOuHB4-10" value="" style="fontColor=#0066CC;verticalAlign=top;verticalLabelPosition=bottom;labelPosition=center;align=center;html=1;outlineConnect=0;fillColor=#CCCCCC;strokeColor=#6881B3;gradientColor=none;gradientDirection=north;strokeWidth=2;shape=mxgraph.networks.security_camera;rotation=0;flipH=0;direction=south;flipV=0;" vertex="1" parent="1">
          <mxGeometry x="3202.0043283913346" y="1916.8701546408913" width="44" height="36" as="geometry" />
        </mxCell>
        <mxCell id="h2t665Zjdi5_VcNOuHB4-11" value="" style="endArrow=none;html=1;rounded=0;fontSize=12;startSize=8;endSize=8;curved=0;strokeColor=#99004D;strokeWidth=2;entryX=0.913;entryY=-0.024;entryDx=0;entryDy=0;entryPerimeter=0;exitX=0.988;exitY=-0.062;exitDx=0;exitDy=0;exitPerimeter=0;" edge="1" parent="1" source="fJ2e_rolW9SCwPJDsatI-275" target="fJ2e_rolW9SCwPJDsatI-275">
          <mxGeometry width="50" height="50" relative="1" as="geometry">
            <mxPoint x="3236" y="1900" as="sourcePoint" />
            <mxPoint x="3246" y="1899" as="targetPoint" />
          </mxGeometry>
        </mxCell>
        <mxCell id="h2t665Zjdi5_VcNOuHB4-12" value="" style="endArrow=none;html=1;rounded=0;fontSize=12;startSize=8;endSize=8;curved=0;strokeColor=#99004D;strokeWidth=2;entryX=0.277;entryY=1.007;entryDx=0;entryDy=0;entryPerimeter=0;exitX=0.927;exitY=1.006;exitDx=0;exitDy=0;exitPerimeter=0;" edge="1" parent="1" source="fJ2e_rolW9SCwPJDsatI-273">
          <mxGeometry width="50" height="50" relative="1" as="geometry">
            <mxPoint x="3183.0043283913346" y="1917.8701546408913" as="sourcePoint" />
            <mxPoint x="3183.229328391335" y="1904.6931546408914" as="targetPoint" />
          </mxGeometry>
        </mxCell>
        <mxCell id="fJ2e_rolW9SCwPJDsatI-302" value="" style="fontColor=#0066CC;verticalAlign=top;verticalLabelPosition=bottom;labelPosition=center;align=center;html=1;outlineConnect=0;fillColor=#CCCCCC;strokeColor=#6881B3;gradientColor=none;gradientDirection=north;strokeWidth=2;shape=mxgraph.networks.video_projector_screen;" parent="1" vertex="1">
          <mxGeometry x="2821.7443283913344" y="1704.0001546408914" width="52.99" height="41" as="geometry" />
        </mxCell>
        <mxCell id="h2t665Zjdi5_VcNOuHB4-27" value="" style="endArrow=none;html=1;rounded=0;fontSize=12;startSize=8;endSize=8;curved=0;strokeColor=#99004D;strokeWidth=2;entryX=0.014;entryY=0.292;entryDx=0;entryDy=0;entryPerimeter=0;exitX=0;exitY=0.5;exitDx=0;exitDy=0;exitPerimeter=0;" edge="1" parent="1" source="fJ2e_rolW9SCwPJDsatI-393" target="fJ2e_rolW9SCwPJDsatI-257">
          <mxGeometry width="50" height="50" relative="1" as="geometry">
            <mxPoint x="2915.004328391335" y="1658.3701546408913" as="sourcePoint" />
            <mxPoint x="2915.004328391335" y="1670.3701546408913" as="targetPoint" />
          </mxGeometry>
        </mxCell>
        <mxCell id="h2t665Zjdi5_VcNOuHB4-28" value="" style="endArrow=none;html=1;rounded=0;fontSize=12;startSize=8;endSize=8;curved=0;strokeColor=#99004D;strokeWidth=2;" edge="1" parent="1" source="fJ2e_rolW9SCwPJDsatI-302" target="fJ2e_rolW9SCwPJDsatI-418">
          <mxGeometry width="50" height="50" relative="1" as="geometry">
            <mxPoint x="2832" y="1690" as="sourcePoint" />
            <mxPoint x="2816" y="1690" as="targetPoint" />
          </mxGeometry>
        </mxCell>
        <mxCell id="h2t665Zjdi5_VcNOuHB4-29" value="" style="endArrow=none;html=1;rounded=0;fontSize=12;startSize=8;endSize=8;curved=0;strokeColor=#99004D;strokeWidth=2;entryX=0.5;entryY=0.15;entryDx=0;entryDy=0;entryPerimeter=0;" edge="1" parent="1" target="fJ2e_rolW9SCwPJDsatI-418">
          <mxGeometry width="50" height="50" relative="1" as="geometry">
            <mxPoint x="2873" y="1677" as="sourcePoint" />
            <mxPoint x="2908" y="1735" as="targetPoint" />
          </mxGeometry>
        </mxCell>
      </root>
    </mxGraphModel>
  </diagram>
</mxfile>
